<svg fill="#6C5CE7" id="Layer_1" data-name="Layer 1" xmlns="http://www.w3.org/2000/svg" viewBox="0 0 50 50" xmlns:c2pa="http://c2pa.org/manifest"><metadata><c2pa:manifest>AAAWgmp1bWIAAAAeanVtZGMycGEAEQAQgAAAqgA4m3EDYzJwYQAAABZcanVtYgAAAEdqdW1kYzJtYQARABCAAACqADibcQN1cm46YzJwYTpmMzJlZWU1Mi02ZWUxLTRjNTQtYTA1Zi1mYjM5YzY2YTkyMGIAAAADl2p1bWIAAAApanVtZGMyYXMAEQAQgAAAqgA4m3EDYzJwYS5hc3NlcnRpb25zAAAAALxqdW1iAAAARGp1bWRjYm9yABEAEIAAAKoAOJtxE2MycGEuaW5ncmVkaWVudC52MwAAAAAYYzJzaBen0RkBlOV7DtCRCNNG8yYAAABwY2JvcqNpZGM6Zm9ybWF0bWltYWdlL3N2Zyt4bWxqaW5zdGFuY2VJRHgseG1wOmlpZDplNmMwZTE2Mi0wMzc2LTQ1ZTYtOTk2Yy1iYTdiNTZjMGU1M2VscmVsYXRpb25zaGlwaHBhcmVudE9mAAAB4mp1bWIAAABBanVtZGNib3IAEQAQgAAAqgA4m3ETYzJwYS5hY3Rpb25zLnYyAAAAABhjMnNoF3/LdK/6KdPd065alL/eMAAAAZljYm9yomdhY3Rpb25zgqJmYWN0aW9ua2MycGEub3BlbmVkanBhcmFtZXRlcnOha2luZ3JlZGllbnRzgaJjdXJseC1zZWxmI2p1bWJmPWMycGEuYXNzZXJ0aW9ucy9jMnBhLmluZ3JlZGllbnQudjNkaGFzaFgggJ95K8yib59iYfyd4dCs38ahnkjyAecXrCkCamf2hkKkZmFjdGlvbngdY29tLmFudGhyb3BpYy5jbGF1ZGUucHJvdmlkZWRqcGFyYW1ldGVyc6F4H2NvbS5hbnRocm9waWMub3JpZ2luLWNvbmZpZGVuY2VndW5rbm93bmtkZXNjcmlwdGlvbnhmQ2xhdWRlIHByb3ZpZGVkIHRoaXMgZmlsZSBhdCB0aGUgcmVxdWVzdCBvZiBhIHVzZXIgYW5kIG1heSBoYXZlIGNyZWF0ZWQgb3IgbW9kaWZpZWQgdGhlIGZpbGUgY29udGVudHMubXNvZnR3YXJlQWdlbnShZG5hbWVmQ2xhdWRlcmFsbEFjdGlvbnNJbmNsdWRlZPUAAADIanVtYgAAAEBqdW1kY2JvcgARABCAAACqADibcRNjMnBhLmhhc2guZGF0YQAAAAAYYzJzaF+WgIpCVwTox/qkgZnB1/UAAACAY2JvcqVjYWxnZnNoYTI1NmNwYWRNAAAAAAAAAAAAAAAAAGRoYXNoWCBdo5iQ/pvzkjc9kfjCHWOuNRD7kJ0LUoV/4t7pXxqE22RuYW1lbmp1bWJmIG1hbmlmZXN0amV4Y2x1c2lvbnOBomVzdGFydBirZmxlbmd0aBkeBAAAAj5qdW1iAAAAJ2p1bWRjMmNsABEAEIAAAKoAOJtxA2MycGEuY2xhaW0udjIAAAACD2Nib3KlY2FsZ2ZzaGEyNTZpc2lnbmF0dXJleE1zZWxmI2p1bWJmPS9jMnBhL3VybjpjMnBhOmYzMmVlZTUyLTZlZTEtNGM1NC1hMDVmLWZiMzljNjZhOTIwYi9jMnBhLnNpZ25hdHVyZWppbnN0YW5jZUlEeCx4bXA6aWlkOmMzNmE4YzQ1LWMzNjItNDI0NS05NGFhLTE5YTFiYjE3YjkwY3JjcmVhdGVkX2Fzc2VydGlvbnODomN1cmx4LXNlbGYjanVtYmY9YzJwYS5hc3NlcnRpb25zL2MycGEuaW5ncmVkaWVudC52M2RoYXNoWCCAn3krzKJvn2Jh/J3h0KzfxqGeSPIB5xesKQJqZ/aGQqJjdXJseCpzZWxmI2p1bWJmPWMycGEuYXNzZXJ0aW9ucy9jMnBhLmFjdGlvbnMudjJkaGFzaFgghOEJIsetIgJfLTOFQYoko9VD/yw3zJWxGOX/Sv55Fw+iY3VybHgpc2VsZiNqdW1iZj1jMnBhLmFzc2VydGlvbnMvYzJwYS5oYXNoLmRhdGFkaGFzaFggvzg+3z1/a6yydxz93zICpM9ftgexLR2tV0HSs3EyfP90Y2xhaW1fZ2VuZXJhdG9yX2luZm+jZG5hbWVvQW50aHJvcGljIEZpbGVzZ3ZlcnNpb25lMS4wLjBrc3BlY1ZlcnNpb25lMi40LjAAABA4anVtYgAAAChqdW1kYzJjcwARABCAAACqADibcQNjMnBhLnNpZ25hdHVyZQAAABAIY2JvctKEWQISogEmGCFZAgowggIGMIIBjaADAgECAhRA5aAK7sI50L64g/oGQgU9Z1UTADAKBggqhkjOPQQDAzBJMRcwFQYDVQQKEw5BbnRocm9waWMsIFBCQzEuMCwGA1UEAxMlQW50aHJvcGljIENvbnRlbnQgQ3JlZGVudGlhbHMgUm9vdCBDQTAeFw0yNjA4MDcxODQzNTZaFw0yODA4MDYxOTQzNTZaMEQxFzAVBgNVBAoTDkFudGhyb3BpYywgUEJDMSkwJwYDVQQDEyBBbnRocm9waWMgQ2xhdWRlIENvbnRlbnQgU2lnbmluZzBZMBMGByqGSM49AgEGCCqGSM49AwEHA0IABJh6CmvLUBgFFNU0vUKlOVtE6djd17L5SuwX0LemFisBM3dkd/3cyjxFA3Qo5S46fX0/ihY0VZ7mfb9KF703t5OjWDBWMA4GA1UdDwEB/wQEAwIHgDAVBgNVHSUEDjAMBgorBgEEAYPoXgIBMAwGA1UdEwEB/wQCMAAwHwYDVR0jBBgwFoAUzlHiBIFOZFsj+OPEz5o+nMHXXMIwCgYIKoZIzj0EAwMDZwAwZAIwMXMdFJ4BetLLVY7ORuE9noqbbAZOZn/aArXyTwFAZfKrPzxF2vPoJNf1+UCdg1XGAjBwX1zd9WGqYkqmL5SFqw1QySjr1zJfpJM9+1rdDwSPLMOPOjKuiXjoU/pUUeG9RwmhY3BhZFkNngAAAAAAAAAAAAAAAAAAAAAAAAAAAAAAAAAAAAAAAAAAAAAAAAAAAAAAAAAAAAAAAAAAAAAAAAAAAAAAAAAAAAAAAAAAAAAAAAAAAAAAAAAAAAAAAAAAAAAAAAAAAAAAAAAAAAAAAAAAAAAAAAAAAAAAAAAAAAAAAAAAAAAAAAAAAAAAAAAAAAAAAAAAAAAAAAAAAAAAAAAAAAAAAAAAAAAAAAAAAAAAAAAAAAAAAAAAAAAAAAAAAAAAAAAAAAAAAAAAAAAAAAAAAAAAAAAAAAAAAAAAAAAAAAAAAAAAAAAAAAAAAAAAAAAAAAAAAAAAAAAAAAAAAAAAAAAAAAAAAAAAAAAAAAAAAAAAAAAAAAAAAAAAAAAAAAAAAAAAAAAAAAAAAAAAAAAAAAAAAAAAAAAAAAAAAAAAAAAAAAAAAAAAAAAAAAAAAAAAAAAAAAAAAAAAAAAAAAAAAAAAAAAAAAAAAAAAAAAAAAAAAAAAAAAAAAAAAAAAAAAAAAAAAAAAAAAAAAAAAAAAAAAAAAAAAAAAAAAAAAAAAAAAAAAAAAAAAAAAAAAAAAAAAAAAAAAAAAAAAAAAAAAAAAAAAAAAAAAAAAAAAAAAAAAAAAAAAAAAAAAAAAAAAAAAAAAAAAAAAAAAAAAAAAAAAAAAAAAAAAAAAAAAAAAAAAAAAAAAAAAAAAAAAAAAAAAAAAAAAAAAAAAAAAAAAAAAAAAAAAAAAAAAAAAAAAAAAAAAAAAAAAAAAAAAAAAAAAAAAAAAAAAAAAAAAAAAAAAAAAAAAAAAAAAAAAAAAAAAAAAAAAAAAAAAAAAAAAAAAAAAAAAAAAAAAAAAAAAAAAAAAAAAAAAAAAAAAAAAAAAAAAAAAAAAAAAAAAAAAAAAAAAAAAAAAAAAAAAAAAAAAAAAAAAAAAAAAAAAAAAAAAAAAAAAAAAAAAAAAAAAAAAAAAAAAAAAAAAAAAAAAAAAAAAAAAAAAAAAAAAAAAAAAAAAAAAAAAAAAAAAAAAAAAAAAAAAAAAAAAAAAAAAAAAAAAAAAAAAAAAAAAAAAAAAAAAAAAAAAAAAAAAAAAAAAAAAAAAAAAAAAAAAAAAAAAAAAAAAAAAAAAAAAAAAAAAAAAAAAAAAAAAAAAAAAAAAAAAAAAAAAAAAAAAAAAAAAAAAAAAAAAAAAAAAAAAAAAAAAAAAAAAAAAAAAAAAAAAAAAAAAAAAAAAAAAAAAAAAAAAAAAAAAAAAAAAAAAAAAAAAAAAAAAAAAAAAAAAAAAAAAAAAAAAAAAAAAAAAAAAAAAAAAAAAAAAAAAAAAAAAAAAAAAAAAAAAAAAAAAAAAAAAAAAAAAAAAAAAAAAAAAAAAAAAAAAAAAAAAAAAAAAAAAAAAAAAAAAAAAAAAAAAAAAAAAAAAAAAAAAAAAAAAAAAAAAAAAAAAAAAAAAAAAAAAAAAAAAAAAAAAAAAAAAAAAAAAAAAAAAAAAAAAAAAAAAAAAAAAAAAAAAAAAAAAAAAAAAAAAAAAAAAAAAAAAAAAAAAAAAAAAAAAAAAAAAAAAAAAAAAAAAAAAAAAAAAAAAAAAAAAAAAAAAAAAAAAAAAAAAAAAAAAAAAAAAAAAAAAAAAAAAAAAAAAAAAAAAAAAAAAAAAAAAAAAAAAAAAAAAAAAAAAAAAAAAAAAAAAAAAAAAAAAAAAAAAAAAAAAAAAAAAAAAAAAAAAAAAAAAAAAAAAAAAAAAAAAAAAAAAAAAAAAAAAAAAAAAAAAAAAAAAAAAAAAAAAAAAAAAAAAAAAAAAAAAAAAAAAAAAAAAAAAAAAAAAAAAAAAAAAAAAAAAAAAAAAAAAAAAAAAAAAAAAAAAAAAAAAAAAAAAAAAAAAAAAAAAAAAAAAAAAAAAAAAAAAAAAAAAAAAAAAAAAAAAAAAAAAAAAAAAAAAAAAAAAAAAAAAAAAAAAAAAAAAAAAAAAAAAAAAAAAAAAAAAAAAAAAAAAAAAAAAAAAAAAAAAAAAAAAAAAAAAAAAAAAAAAAAAAAAAAAAAAAAAAAAAAAAAAAAAAAAAAAAAAAAAAAAAAAAAAAAAAAAAAAAAAAAAAAAAAAAAAAAAAAAAAAAAAAAAAAAAAAAAAAAAAAAAAAAAAAAAAAAAAAAAAAAAAAAAAAAAAAAAAAAAAAAAAAAAAAAAAAAAAAAAAAAAAAAAAAAAAAAAAAAAAAAAAAAAAAAAAAAAAAAAAAAAAAAAAAAAAAAAAAAAAAAAAAAAAAAAAAAAAAAAAAAAAAAAAAAAAAAAAAAAAAAAAAAAAAAAAAAAAAAAAAAAAAAAAAAAAAAAAAAAAAAAAAAAAAAAAAAAAAAAAAAAAAAAAAAAAAAAAAAAAAAAAAAAAAAAAAAAAAAAAAAAAAAAAAAAAAAAAAAAAAAAAAAAAAAAAAAAAAAAAAAAAAAAAAAAAAAAAAAAAAAAAAAAAAAAAAAAAAAAAAAAAAAAAAAAAAAAAAAAAAAAAAAAAAAAAAAAAAAAAAAAAAAAAAAAAAAAAAAAAAAAAAAAAAAAAAAAAAAAAAAAAAAAAAAAAAAAAAAAAAAAAAAAAAAAAAAAAAAAAAAAAAAAAAAAAAAAAAAAAAAAAAAAAAAAAAAAAAAAAAAAAAAAAAAAAAAAAAAAAAAAAAAAAAAAAAAAAAAAAAAAAAAAAAAAAAAAAAAAAAAAAAAAAAAAAAAAAAAAAAAAAAAAAAAAAAAAAAAAAAAAAAAAAAAAAAAAAAAAAAAAAAAAAAAAAAAAAAAAAAAAAAAAAAAAAAAAAAAAAAAAAAAAAAAAAAAAAAAAAAAAAAAAAAAAAAAAAAAAAAAAAAAAAAAAAAAAAAAAAAAAAAAAAAAAAAAAAAAAAAAAAAAAAAAAAAAAAAAAAAAAAAAAAAAAAAAAAAAAAAAAAAAAAAAAAAAAAAAAAAAAAAAAAAAAAAAAAAAAAAAAAAAAAAAAAAAAAAAAAAAAAAAAAAAAAAAAAAAAAAAAAAAAAAAAAAAAAAAAAAAAAAAAAAAAAAAAAAAAAAAAAAAAAAAAAAAAAAAAAAAAAAAAAAAAAAAAAAAAAAAAAAAAAAAAAAAAAAAAAAAAAAAAAAAAAAAAAAAAAAAAAAAAAAAAAAAAAAAAAAAAAAAAAAAAAAAAAAAAAAAAAAAAAAAAAAAAAAAAAAAAAAAAAAAAAAAAAAAAAAAAAAAAAAAAAAAAAAAAAAAAAAAAAAAAAAAAAAAAAAAAAAAAAAAAAAAAAAAAAAAAAAAAAAAAAAAAAAAAAAAAAAAAAAAAAAAAAAAAAAAAAAAAAAAAAAAAAAAAAAAAAAAAAAAAAAAAAAAAAAAAAAAAAAAAAAAAAAAAAAAAAAAAAAAAAAAAAAAAAAAAAAAAAAAAAAAAAAAAAAAAAAAAAAAAAAAAAAAAAAAAAAAAAAAAAAAAAAAAAAAAAAAAAAAAAAAAAAAAAAAAAAAAAAAAAAAAAAAAAAAAAAAAAAAAAAAAAAAAAAAAAAAAAAAAAAAAAAAAAAAAAAAAAAAAAAAAAAAAAAAAAAAAAAAAAAAAAAAAAAAAAAAAAAAAAAAAAAAAAAAAAAAAAAAAAAAAAAAAAAAAAAAAAAAAAAAAAAAAAAAAAAAAAAAAAAAAAAAAAAAAAAAAAAAAAAAAAAAAAAAAAAAAAAAAAAAAAAAAAAAAAAAAAAAAAAAAAAAAAAAAAAAAAAAAAAAAAAAAAAAAAAAAAAAAAAAAAAAAAAAAAAAAAAAAAAAAAAAAAAAAAAAAAAAAAAAAAAAAAAAAAAAAAAAAAAAAAAAAAAAAAAAAAAAAAAAAAAAAAAAAAAAAAAAAAAAAAAAAAAAAAAAAAAAAAAAAAAAAAAAAAAAAAAAAAAAAAAAAAAAAAAAAAAAAAAAAAAAAAAAAAAAAAAAAAAAAAAAAAAAAAAAAAAAAAAAAAAAAAAAAAAAAAAAAAAAAAAAAAAAAAAAAAAAAAAAAAAAAAAAAAAAAAAAAAAAAAAAAAAAAAAAAAAAAAAAAAAAAAAAAAAAAAAAAAAAAAAAAAAAAAAAAAAAAAAAAAAAAAAAAAAAAAAAAAAAAAAAAAAAAAAAAAAAAAAAAAAAAAAAAAAAAAAAAAAAAAAAAAAAAAAAAAAAAAAAAAAAAAAAAAAAAAAAAAAAAAAAAAAAAAAAAAAAAAAAAAAAAAAAAAAAAAAAAAAAAAAAAAAAAAAAAAAAAAAAAAAAAAAAAAAAAAAAAAAAAAAAAAAAAAAAAAAAAAAAAAAAAAAAAAAAAAAAAAAAAAAAAAAAAAAAAAAAAAAAAAAAAAAAAAAAAAAAAAAAAAAAAAAAAAAAAAAAAAAAAAAAAAAAAAAAAAAAAAAAAAAAAAAAAAAAAAAAAAAAAAAAAAAAAAAAAAAAAAAAAAAAAAAAAAAAAAAAAAAAAAAAAAAAAAAAAAAAAAAAAAAAAAAAAAAAAAAAAAAAAAAAAAAAAAAAAAAAAAAAAAAAAAAAAAAAAAAAAAAAAAAAAAAAAAAAAAAAAAAAAAAAAAAAAAAAAAAAAAAAAAAAAAAAAAAAAAAAAAAAAAAAAAAAAAAAAAAAAAAAAAAAAAAAAAAAAAAAAAAAAAAAAAAAAAAAAAAAAAAAAAAAAAAAAAAAAAAAAAAAAAAAAAAAAAAAAAAAAAAAAAAAAAAAAAAAAAAAAAAAAAAAAAAAAAAAAAAPZYQLlXuvmCxP3/YU6anLcd0B5faeS8Jb5uiNNBNAbCoyRtWpae4wF79jrSATgUwGdDzkWqPH4yaeomT0W80V4s7ZI=</c2pa:manifest></metadata><defs></defs><path d="M36.2.5a9.45,9.45,0,0,1,1.2.42,4,4,0,0,1,2.3,3.69c0,.15,0,.29,0,.43q0,20.79,0,41.58a4.43,4.43,0,0,1-.1,1.09,2.43,2.43,0,0,1-2.23,1.79H6.56a2.5,2.5,0,0,1-2.8-2.8V8.61l-.37-.13A4.08,4.08,0,0,1,3.64.61L3.94.5ZM5.39,8.69V46.63c0,1,.23,1.24,1.24,1.24H36.82c1,0,1.25-.21,1.25-1.27V5a4.84,4.84,0,0,0,0-.76,2.33,2.33,0,0,0-1.59-2,2.32,2.32,0,0,0-2.52.56,2.29,2.29,0,0,0-.61,2.46A2.35,2.35,0,0,0,35.54,7a.84.84,0,1,1,0,1.67,4.51,4.51,0,0,1-.52,0H5.39ZM32.25,2.13H4.6A2.45,2.45,0,0,0,2.13,4.59,2.42,2.42,0,0,0,4.61,7H32.26A4.37,4.37,0,0,1,32.25,2.13Z"></path><path d="M49.5,42.42c-.21.17-.44.34-.64.53a.63.63,0,0,0-.17.38c0,.59,0,1.18,0,1.77,0,.89-.25,1.13-1.14,1.14H47v1.83c0,.19,0,.38,0,.57a.81.81,0,1,1-1.62,0c0-.59,0-1.18,0-1.77v-.63h-.73a.85.85,0,0,1-.9-.9c0-.66,0-1.31,0-2a.51.51,0,0,0-.3-.51,1.05,1.05,0,0,1-.48-.73c0-3.3,0-6.6,0-9.9,0-.21,0-.41,0-.62Q43,21.32,43,11c0-1.8,0-3.6,0-5.41,0-.64.13-.82.79-1.06v-1c0-1.8.39-2.38,2-3.06h.95l.21.1a2.41,2.41,0,0,1,1.74,2.31c0,.45,0,.89,0,1.34a.47.47,0,0,0,.15.34,6.36,6.36,0,0,0,.66.5ZM44.64,16V31.49h3.19V16Zm0-6.57h3.21V6.26H44.63Zm3.21,1.7H44.65v3.2h3.19Zm0,25.26V33.19H44.65v3.22Zm-3.2,1.69v3.18h3.21V38.1ZM47,4.54c0-.61,0-1.18,0-1.74a.71.71,0,0,0-.75-.66.69.69,0,0,0-.79.6,17.91,17.91,0,0,0,0,1.8Zm-1.59,40H47V43H45.43Z"></path><path d="M21.75,33.16H10.66c-1,0-1.17-.22-1.17-1.19,0-1.45,0-2.9,0-4.35,0-.7.29-1,1-1H33c.69,0,1,.31,1,1v4.5c0,.75-.29,1-1.05,1ZM11.14,31.49H32.32v-3.2H11.14Z"></path><path d="M27.46,15.17c0-.76,0-1.53,0-2.29s.29-.94.93-1H33c.66,0,.95.32,1,1V17.5a.85.85,0,0,1-1,1q-2.3,0-4.59,0c-.67,0-1-.29-1-1S27.46,16,27.46,15.17Zm1.66,1.63h3.21V13.6H29.12Z"></path><path d="M18.47,15.17c0-.78,0-1.56,0-2.34a.79.79,0,0,1,.88-.89c1.57,0,3.15,0,4.73,0a.81.81,0,0,1,.91.92v4.68a.84.84,0,0,1-.92.93q-2.34,0-4.68,0c-.63,0-.92-.31-.92-.95S18.47,16,18.47,15.17Zm4.87,1.65V13.6h-3.2v3.22Z"></path><path d="M16,15.19v2.29c0,.67-.29,1-1,1-1.54,0-3.09,0-4.63,0a.82.82,0,0,1-.94-.94q0-2.34,0-4.68c0-.6.28-.91.87-.91,1.59,0,3.19,0,4.78,0,.58,0,.86.32.87.91C16,13.63,16,14.41,16,15.19Zm-1.65-1.58H11.14v3.2h3.22Z"></path><path d="M18.47,38c0-.76,0-1.53,0-2.29s.28-1,.93-1h4.68a.82.82,0,0,1,.91.93v4.68a.84.84,0,0,1-.92.93H19.4c-.64,0-.92-.31-.92-1S18.47,38.82,18.47,38Zm1.67-1.58v3.21h3.21V36.46Z"></path><path d="M9.49,38c0-.75,0-1.49,0-2.24s.27-1,.94-1h4.63c.67,0,1,.31,1,1v4.59c0,.66-.3,1-1,1H10.46c-.68,0-1-.3-1-1S9.49,38.81,9.49,38Zm1.66-1.57v3.22h3.2V36.46Z"></path><path d="M27.46,38.06c0-.77,0-1.53,0-2.3s.29-1,1-1H33c.68,0,1,.31,1,1v4.54c0,.68-.31,1-1,1H28.45c-.7,0-1-.29-1-1S27.46,38.82,27.46,38.06Zm4.88-1.6H29.13v3.2h3.21Z"></path><path d="M22.13,43h4.3c.65,0,1,.31,1,.82s-.38.81-1,.81H17.7a.82.82,0,0,1-.85-.84.78.78,0,0,1,.88-.79Z"></path><path d="M22.14,20.11h4.31c.62,0,1,.29,1,.79s-.37.84-1,.84H17.83c-.64,0-1-.32-1-.85s.35-.78,1-.78Z"></path><path d="M19.27,25H15.39c-.63,0-1-.33-1-.83s.39-.8,1-.8h7.8c.64,0,1,.31,1,.83s-.37.8-1,.8Z"></path><path d="M29.91,25H26.85c-.65,0-1-.29-1-.8s.35-.83,1-.83H33c.61,0,1,.31,1,.8S33.6,25,33,25Z"></path><path d="M12.32,20.11h2a.81.81,0,1,1,0,1.62q-2,0-4,0a.81.81,0,0,1-.87-.82.79.79,0,0,1,.87-.8Z"></path><path d="M12.33,43h1.95a.81.81,0,1,1,0,1.62c-1.31,0-2.61,0-3.92,0a.81.81,0,0,1-.9-.83c0-.49.35-.79.93-.79Z"></path><path d="M31.56,20.11h1.57a.81.81,0,0,1,.85.79.82.82,0,0,1-.81.83c-1.09,0-2.19,0-3.28,0a.81.81,0,1,1,.05-1.62Z"></path><path d="M31.55,43h1.53a.81.81,0,1,1,.05,1.62c-1.06,0-2.13,0-3.19,0a.79.79,0,0,1-.84-.84c0-.48.33-.76.88-.78h1.57Z"></path><path d="M11.13,25c-.29,0-.58,0-.86,0a.8.8,0,0,1-.78-.81.77.77,0,0,1,.78-.8c.57,0,1.14,0,1.72,0a.79.79,0,0,1,.75.78A.8.8,0,0,1,12,25c-.29,0-.58,0-.86,0Z"></path></svg>