<?xml version="1.0"?><svg fill="#6C5CE7" version="1.1" id="Layer_1" xmlns="http://www.w3.org/2000/svg" xmlns:xlink="http://www.w3.org/1999/xlink" x="0px" y="0px" viewBox="0 0 80 80" style="enable-background:new 0 0 80 80;" xml:space="preserve" xmlns:c2pa="http://c2pa.org/manifest"><metadata><c2pa:manifest>AAAWgmp1bWIAAAAeanVtZGMycGEAEQAQgAAAqgA4m3EDYzJwYQAAABZcanVtYgAAAEdqdW1kYzJtYQARABCAAACqADibcQN1cm46YzJwYTo0N2RjNGM5YS1jN2U2LTQ3NjUtOGIwNS0zMTk4NzE0NjM4ODEAAAADl2p1bWIAAAApanVtZGMyYXMAEQAQgAAAqgA4m3EDYzJwYS5hc3NlcnRpb25zAAAAALxqdW1iAAAARGp1bWRjYm9yABEAEIAAAKoAOJtxE2MycGEuaW5ncmVkaWVudC52MwAAAAAYYzJzaP+JCRV5vBVDW/3c1un8hzgAAABwY2JvcqNpZGM6Zm9ybWF0bWltYWdlL3N2Zyt4bWxqaW5zdGFuY2VJRHgseG1wOmlpZDowMDQwYjk4NS03ZTU4LTRjMjktYWJlOS1iZmE4NDdlZDRkNGVscmVsYXRpb25zaGlwaHBhcmVudE9mAAAB4mp1bWIAAABBanVtZGNib3IAEQAQgAAAqgA4m3ETYzJwYS5hY3Rpb25zLnYyAAAAABhjMnNo/tn0K2t9nAxvdTjPA6A1QgAAAZljYm9yomdhY3Rpb25zgqJmYWN0aW9ua2MycGEub3BlbmVkanBhcmFtZXRlcnOha2luZ3JlZGllbnRzgaJjdXJseC1zZWxmI2p1bWJmPWMycGEuYXNzZXJ0aW9ucy9jMnBhLmluZ3JlZGllbnQudjNkaGFzaFggOtfk8iDMJ3sH9HdD4gN9PyZ0fpUrA74bduMZf0VJoHqkZmFjdGlvbngdY29tLmFudGhyb3BpYy5jbGF1ZGUucHJvdmlkZWRqcGFyYW1ldGVyc6F4H2NvbS5hbnRocm9waWMub3JpZ2luLWNvbmZpZGVuY2VndW5rbm93bmtkZXNjcmlwdGlvbnhmQ2xhdWRlIHByb3ZpZGVkIHRoaXMgZmlsZSBhdCB0aGUgcmVxdWVzdCBvZiBhIHVzZXIgYW5kIG1heSBoYXZlIGNyZWF0ZWQgb3IgbW9kaWZpZWQgdGhlIGZpbGUgY29udGVudHMubXNvZnR3YXJlQWdlbnShZG5hbWVmQ2xhdWRlcmFsbEFjdGlvbnNJbmNsdWRlZPUAAADIanVtYgAAAEBqdW1kY2JvcgARABCAAACqADibcRNjMnBhLmhhc2guZGF0YQAAAAAYYzJzaIuwz0Ql68bGI41DyqVTV+UAAACAY2JvcqVjYWxnZnNoYTI1NmNwYWRMAAAAAAAAAAAAAAAAZGhhc2hYIOP2euvDizufff09eG0mngpcW8EObSMCT3croyWPQdHSZG5hbWVuanVtYmYgbWFuaWZlc3RqZXhjbHVzaW9uc4GiZXN0YXJ0GQEzZmxlbmd0aBkeBAAAAj5qdW1iAAAAJ2p1bWRjMmNsABEAEIAAAKoAOJtxA2MycGEuY2xhaW0udjIAAAACD2Nib3KlY2FsZ2ZzaGEyNTZpc2lnbmF0dXJleE1zZWxmI2p1bWJmPS9jMnBhL3VybjpjMnBhOjQ3ZGM0YzlhLWM3ZTYtNDc2NS04YjA1LTMxOTg3MTQ2Mzg4MS9jMnBhLnNpZ25hdHVyZWppbnN0YW5jZUlEeCx4bXA6aWlkOjIwNTI3MmRiLWJkYWYtNDBkOC1hYzQyLTAwMzllN2VlOTBiY3JjcmVhdGVkX2Fzc2VydGlvbnODomN1cmx4LXNlbGYjanVtYmY9YzJwYS5hc3NlcnRpb25zL2MycGEuaW5ncmVkaWVudC52M2RoYXNoWCA61+TyIMwnewf0d0PiA30/JnR+lSsDvht24xl/RUmgeqJjdXJseCpzZWxmI2p1bWJmPWMycGEuYXNzZXJ0aW9ucy9jMnBhLmFjdGlvbnMudjJkaGFzaFggFHrdo1tY8g8+ZMh2wbgeECk7jA6jDR2SjBByIUoGYJCiY3VybHgpc2VsZiNqdW1iZj1jMnBhLmFzc2VydGlvbnMvYzJwYS5oYXNoLmRhdGFkaGFzaFggVM7rT5mzng7tP15zUILMhHbXqgeVegEgN9Tx1BoMGLF0Y2xhaW1fZ2VuZXJhdG9yX2luZm+jZG5hbWVvQW50aHJvcGljIEZpbGVzZ3ZlcnNpb25lMS4wLjBrc3BlY1ZlcnNpb25lMi40LjAAABA4anVtYgAAAChqdW1kYzJjcwARABCAAACqADibcQNjMnBhLnNpZ25hdHVyZQAAABAIY2JvctKEWQISogEmGCFZAgowggIGMIIBjaADAgECAhRA5aAK7sI50L64g/oGQgU9Z1UTADAKBggqhkjOPQQDAzBJMRcwFQYDVQQKEw5BbnRocm9waWMsIFBCQzEuMCwGA1UEAxMlQW50aHJvcGljIENvbnRlbnQgQ3JlZGVudGlhbHMgUm9vdCBDQTAeFw0yNjA4MDcxODQzNTZaFw0yODA4MDYxOTQzNTZaMEQxFzAVBgNVBAoTDkFudGhyb3BpYywgUEJDMSkwJwYDVQQDEyBBbnRocm9waWMgQ2xhdWRlIENvbnRlbnQgU2lnbmluZzBZMBMGByqGSM49AgEGCCqGSM49AwEHA0IABJh6CmvLUBgFFNU0vUKlOVtE6djd17L5SuwX0LemFisBM3dkd/3cyjxFA3Qo5S46fX0/ihY0VZ7mfb9KF703t5OjWDBWMA4GA1UdDwEB/wQEAwIHgDAVBgNVHSUEDjAMBgorBgEEAYPoXgIBMAwGA1UdEwEB/wQCMAAwHwYDVR0jBBgwFoAUzlHiBIFOZFsj+OPEz5o+nMHXXMIwCgYIKoZIzj0EAwMDZwAwZAIwMXMdFJ4BetLLVY7ORuE9noqbbAZOZn/aArXyTwFAZfKrPzxF2vPoJNf1+UCdg1XGAjBwX1zd9WGqYkqmL5SFqw1QySjr1zJfpJM9+1rdDwSPLMOPOjKuiXjoU/pUUeG9RwmhY3BhZFkNngAAAAAAAAAAAAAAAAAAAAAAAAAAAAAAAAAAAAAAAAAAAAAAAAAAAAAAAAAAAAAAAAAAAAAAAAAAAAAAAAAAAAAAAAAAAAAAAAAAAAAAAAAAAAAAAAAAAAAAAAAAAAAAAAAAAAAAAAAAAAAAAAAAAAAAAAAAAAAAAAAAAAAAAAAAAAAAAAAAAAAAAAAAAAAAAAAAAAAAAAAAAAAAAAAAAAAAAAAAAAAAAAAAAAAAAAAAAAAAAAAAAAAAAAAAAAAAAAAAAAAAAAAAAAAAAAAAAAAAAAAAAAAAAAAAAAAAAAAAAAAAAAAAAAAAAAAAAAAAAAAAAAAAAAAAAAAAAAAAAAAAAAAAAAAAAAAAAAAAAAAAAAAAAAAAAAAAAAAAAAAAAAAAAAAAAAAAAAAAAAAAAAAAAAAAAAAAAAAAAAAAAAAAAAAAAAAAAAAAAAAAAAAAAAAAAAAAAAAAAAAAAAAAAAAAAAAAAAAAAAAAAAAAAAAAAAAAAAAAAAAAAAAAAAAAAAAAAAAAAAAAAAAAAAAAAAAAAAAAAAAAAAAAAAAAAAAAAAAAAAAAAAAAAAAAAAAAAAAAAAAAAAAAAAAAAAAAAAAAAAAAAAAAAAAAAAAAAAAAAAAAAAAAAAAAAAAAAAAAAAAAAAAAAAAAAAAAAAAAAAAAAAAAAAAAAAAAAAAAAAAAAAAAAAAAAAAAAAAAAAAAAAAAAAAAAAAAAAAAAAAAAAAAAAAAAAAAAAAAAAAAAAAAAAAAAAAAAAAAAAAAAAAAAAAAAAAAAAAAAAAAAAAAAAAAAAAAAAAAAAAAAAAAAAAAAAAAAAAAAAAAAAAAAAAAAAAAAAAAAAAAAAAAAAAAAAAAAAAAAAAAAAAAAAAAAAAAAAAAAAAAAAAAAAAAAAAAAAAAAAAAAAAAAAAAAAAAAAAAAAAAAAAAAAAAAAAAAAAAAAAAAAAAAAAAAAAAAAAAAAAAAAAAAAAAAAAAAAAAAAAAAAAAAAAAAAAAAAAAAAAAAAAAAAAAAAAAAAAAAAAAAAAAAAAAAAAAAAAAAAAAAAAAAAAAAAAAAAAAAAAAAAAAAAAAAAAAAAAAAAAAAAAAAAAAAAAAAAAAAAAAAAAAAAAAAAAAAAAAAAAAAAAAAAAAAAAAAAAAAAAAAAAAAAAAAAAAAAAAAAAAAAAAAAAAAAAAAAAAAAAAAAAAAAAAAAAAAAAAAAAAAAAAAAAAAAAAAAAAAAAAAAAAAAAAAAAAAAAAAAAAAAAAAAAAAAAAAAAAAAAAAAAAAAAAAAAAAAAAAAAAAAAAAAAAAAAAAAAAAAAAAAAAAAAAAAAAAAAAAAAAAAAAAAAAAAAAAAAAAAAAAAAAAAAAAAAAAAAAAAAAAAAAAAAAAAAAAAAAAAAAAAAAAAAAAAAAAAAAAAAAAAAAAAAAAAAAAAAAAAAAAAAAAAAAAAAAAAAAAAAAAAAAAAAAAAAAAAAAAAAAAAAAAAAAAAAAAAAAAAAAAAAAAAAAAAAAAAAAAAAAAAAAAAAAAAAAAAAAAAAAAAAAAAAAAAAAAAAAAAAAAAAAAAAAAAAAAAAAAAAAAAAAAAAAAAAAAAAAAAAAAAAAAAAAAAAAAAAAAAAAAAAAAAAAAAAAAAAAAAAAAAAAAAAAAAAAAAAAAAAAAAAAAAAAAAAAAAAAAAAAAAAAAAAAAAAAAAAAAAAAAAAAAAAAAAAAAAAAAAAAAAAAAAAAAAAAAAAAAAAAAAAAAAAAAAAAAAAAAAAAAAAAAAAAAAAAAAAAAAAAAAAAAAAAAAAAAAAAAAAAAAAAAAAAAAAAAAAAAAAAAAAAAAAAAAAAAAAAAAAAAAAAAAAAAAAAAAAAAAAAAAAAAAAAAAAAAAAAAAAAAAAAAAAAAAAAAAAAAAAAAAAAAAAAAAAAAAAAAAAAAAAAAAAAAAAAAAAAAAAAAAAAAAAAAAAAAAAAAAAAAAAAAAAAAAAAAAAAAAAAAAAAAAAAAAAAAAAAAAAAAAAAAAAAAAAAAAAAAAAAAAAAAAAAAAAAAAAAAAAAAAAAAAAAAAAAAAAAAAAAAAAAAAAAAAAAAAAAAAAAAAAAAAAAAAAAAAAAAAAAAAAAAAAAAAAAAAAAAAAAAAAAAAAAAAAAAAAAAAAAAAAAAAAAAAAAAAAAAAAAAAAAAAAAAAAAAAAAAAAAAAAAAAAAAAAAAAAAAAAAAAAAAAAAAAAAAAAAAAAAAAAAAAAAAAAAAAAAAAAAAAAAAAAAAAAAAAAAAAAAAAAAAAAAAAAAAAAAAAAAAAAAAAAAAAAAAAAAAAAAAAAAAAAAAAAAAAAAAAAAAAAAAAAAAAAAAAAAAAAAAAAAAAAAAAAAAAAAAAAAAAAAAAAAAAAAAAAAAAAAAAAAAAAAAAAAAAAAAAAAAAAAAAAAAAAAAAAAAAAAAAAAAAAAAAAAAAAAAAAAAAAAAAAAAAAAAAAAAAAAAAAAAAAAAAAAAAAAAAAAAAAAAAAAAAAAAAAAAAAAAAAAAAAAAAAAAAAAAAAAAAAAAAAAAAAAAAAAAAAAAAAAAAAAAAAAAAAAAAAAAAAAAAAAAAAAAAAAAAAAAAAAAAAAAAAAAAAAAAAAAAAAAAAAAAAAAAAAAAAAAAAAAAAAAAAAAAAAAAAAAAAAAAAAAAAAAAAAAAAAAAAAAAAAAAAAAAAAAAAAAAAAAAAAAAAAAAAAAAAAAAAAAAAAAAAAAAAAAAAAAAAAAAAAAAAAAAAAAAAAAAAAAAAAAAAAAAAAAAAAAAAAAAAAAAAAAAAAAAAAAAAAAAAAAAAAAAAAAAAAAAAAAAAAAAAAAAAAAAAAAAAAAAAAAAAAAAAAAAAAAAAAAAAAAAAAAAAAAAAAAAAAAAAAAAAAAAAAAAAAAAAAAAAAAAAAAAAAAAAAAAAAAAAAAAAAAAAAAAAAAAAAAAAAAAAAAAAAAAAAAAAAAAAAAAAAAAAAAAAAAAAAAAAAAAAAAAAAAAAAAAAAAAAAAAAAAAAAAAAAAAAAAAAAAAAAAAAAAAAAAAAAAAAAAAAAAAAAAAAAAAAAAAAAAAAAAAAAAAAAAAAAAAAAAAAAAAAAAAAAAAAAAAAAAAAAAAAAAAAAAAAAAAAAAAAAAAAAAAAAAAAAAAAAAAAAAAAAAAAAAAAAAAAAAAAAAAAAAAAAAAAAAAAAAAAAAAAAAAAAAAAAAAAAAAAAAAAAAAAAAAAAAAAAAAAAAAAAAAAAAAAAAAAAAAAAAAAAAAAAAAAAAAAAAAAAAAAAAAAAAAAAAAAAAAAAAAAAAAAAAAAAAAAAAAAAAAAAAAAAAAAAAAAAAAAAAAAAAAAAAAAAAAAAAAAAAAAAAAAAAAAAAAAAAAAAAAAAAAAAAAAAAAAAAAAAAAAAAAAAAAAAAAAAAAAAAAAAAAAAAAAAAAAAAAAAAAAAAAAAAAAAAAAAAAAAAAAAAAAAAAAAAAAAAAAAAAAAAAAAAAAAAAAAAAAAAAAAAAAAAAAAAAAAAAAAAAAAAAAAAAAAAAAAAAAAAAAAAAAAAAAAAAAAAAAAAAAAAAAAAAAAAAAAAAAAAAAAAAAAAAAAAAAAAAAAAAAAAAAAAAAAAAAAAAAAAAAAAAAAAAAAAAAAAAAAAAAAAAAAAAAAAAAAAAAAAAAAAAAAAAAAAAAAAAAAAAAAAAAAAAAAAAAAAAAAAAAAAAAAAAAAAAAAAAAAAAAAAAAAAAAAAAAAAAAAAAAAAAAAAAAAAAAAAAAAAAAAAAAAAAAAAAAAAAAAAAAAAAAAAAAAAAAAAAAAAAAAAAAAAAAAAAAAAAAAAAAAAAAAAAAAAAAAAAAAAAAAAAAAAAAAAAAAAAAAAAAAAAAAAAAAAAAAAAAAAAAAAAAAAAAAAAAAAAAAAAAAAAAAAAAAAAAAAAAAAAAAAAAAAAAAAAAAAAAAAAAAAAAAAAAAAAAAAAAAAAAAAAAAAAAAAAAAAAAAAAAAAAAAAAAAAAAAAAAAAAAAAAAAAAAAAAAAAAAAAAAAAAAAAAAAAAAAAAAAAAAAAAAAAAAAAAAAAAAAAAAAAAAAAAAAAAAAAAAAAAAAAAAAAAAAAAAAAAAAAAAAAAAAAAAAAAAAAAAAAAAAAAAAAAAAAAAAAAAAAAAAAAAAAAAAAAAAAAAAAAAAAAAAAAAAAAAAAAAAAAAAAAAAAAAAAAAAAAAAAAAAAAAAAAAAAAAAAAAAAAAAAAAAAAAAAAAAAAAAAAAAAAAAAAAAAAAAAAAAAAAAAAAAAAAAAAAAAAAAAAAAAAAAAAAAAAAAAAAAAAAAAAAAAAAAAAAAAAAAAAAAAAAAAAAAAAAAAAAAAAAAAAAAAAAAAAAAAAAAAAAAAAAAAAAAAAAAAAAAAAAAAAAAAAAAAAAAAAAAAAAAAAAAAAAAAAAAAAAAAAAAAAAAAAAAAAAAAAAAAAAAAAAAAAAAAAAAAAAAAAAAAAAAAAAAAAAAAAAAAAAAAAAAAAAAAAAAAAAAAAAAAAAAAAAAAAAAAAAAAAAAAAAAAAAAAAAAAAAAAAAAAAAAAAAAAAAAAAAAAAAAAAAAAAAAAAAAAAAAAAAAAAAAAAAAAAAAAAAAAAAAAAAAAAAAAAAAAAAAAAAAAAAAAAAAAAAAAAAAAAAAAAAAAAAAAAAAAAAAAAAAAAAAAAAAAAAAAAAAAAAAAAAAAAAAAPZYQJJs045cjrrT1n11tWiy4WyfkLmSWVE5Gz/C4iFCPnyswLK5z4C1eFHbcCAaZUpnu6qd2WPlsubRZ7FYuHr4ezc=</c2pa:manifest></metadata>

<g>
&#x9;<path d="M13.5,10.6c0.6,0,1-0.5,1-1V5.3h31.4c0.8,0,1.4,0.3,2,0.9c0,0,0,0,0,0L48,6.3c0.6,0.6,0.9,1.4,0.9,2.3V17   c0,0.6,0.5,1,1,1h8.5c0.9,0,1.7,0.3,2.3,0.9l0.1,0.1c0,0,0,0,0,0c0.6,0.6,0.9,1.2,0.9,2v11.8c0,0.6,0.5,1,1,1c0.6,0,1-0.5,1-1V21.1   c0-1.3-0.5-2.5-1.5-3.5L49.3,4.8c-1-1-2.2-1.5-3.5-1.5H13.5c-0.3,0-0.5,0.1-0.7,0.3c-0.2,0.2-0.3,0.5-0.3,0.7v5.3   C12.4,10.1,12.9,10.6,13.5,10.6L13.5,10.6z M50.9,16V9.3l6.8,6.8H50.9z M75.9,39.4c-0.5-1.9-1.7-3.4-3.4-4.4   c-1.7-1-3.6-1.2-5.5-0.7c-1.9,0.5-3.4,1.7-4.4,3.4c-0.6,1-0.9,2-1,3.1c-0.3,4.4-1.4,8.1-3.6,11.9l-1,1.7c-0.7-0.2-1.3-0.2-2,0V29.7   c0-1.3-0.5-2.5-1.5-3.5L40.7,13.4c-1-1-2.2-1.5-3.5-1.5H4.8c-0.3,0-0.5,0.1-0.7,0.3c-0.2,0.2-0.3,0.5-0.3,0.7v62.9   c0,0.3,0.1,0.5,0.3,0.7c0.2,0.2,0.5,0.3,0.7,0.3h49.2c0.6,0,1-0.5,1-1v-3.2l6.7,3.9c0.4,0.2,0.7,0.3,1.1,0.3c0.8,0,1.5-0.4,1.9-1.1   l0.8-1.3l0.2,0.1c0.4,0.2,0.7,0.3,1.1,0.3c0.8,0,1.5-0.4,1.9-1.1l1-1.7c1.2-2,0.5-4.6-1.5-5.7l-4.9-2.8l0.6-1.1   c0.8-1.4,0.5-3.1-0.7-4.1l1-1.7c2.2-3.8,4.8-6.6,8.5-9.1c0.9-0.6,1.7-1.4,2.2-2.4C76.2,43.3,76.4,41.3,75.9,39.4L75.9,39.4z    M42.3,17.9l6.8,6.8h-6.8V17.9z M53,74.7H5.9V13.9h31.4c0.8,0,1.4,0.3,2,0.9c0,0,0,0,0,0l0.1,0.1c0.6,0.6,0.9,1.4,0.9,2.3v8.5   c0,0.6,0.5,1,1,1h8.5c0.9,0,1.7,0.3,2.3,0.9l0.1,0.1c0,0,0,0,0,0c0.6,0.6,0.9,1.2,0.9,2v26.4l-0.5,0.9l-4.9-2.8   c-2-1.2-4.6-0.5-5.7,1.5l-1,1.7c-0.6,1.1-0.3,2.4,0.8,3.1l0.2,0.1L41.2,62c-0.6,1.1-0.3,2.4,0.8,3.1l11,6.3L53,74.7L53,74.7z    M63.1,74.6c-0.1,0.1-0.2,0.1-0.3,0.1L43.1,63.3C43,63.2,42.9,63.1,43,63l0.8-1.3l20.1,11.6L63.1,74.6L63.1,74.6z M68.2,70.9   l-1,1.7c-0.1,0.1-0.2,0.1-0.3,0.1L42.8,58.8c-0.1-0.1-0.1-0.2-0.1-0.3l1-1.7c0.4-0.7,1.1-1.1,1.9-1.1c0.4,0,0.7,0.1,1.1,0.3   l20.8,12C68.4,68.6,68.7,69.9,68.2,70.9L68.2,70.9z M54.3,58.1l0.6-1.1c0.4-0.6,1.1-0.8,1.7-0.5l5.2,3c0.6,0.4,0.8,1.1,0.5,1.7   l-0.6,1.1L54.3,58.1L54.3,58.1z M73.4,43.9c-0.4,0.7-0.9,1.3-1.6,1.7c-3.9,2.6-6.8,5.7-9.1,9.8l-0.9,1.6l-2.9-1.7l0.9-1.6   c2.4-4.1,3.6-8.1,3.9-12.8c0.1-0.8,0.3-1.6,0.7-2.3c0.7-1.2,1.8-2.1,3.2-2.4c1.3-0.4,2.8-0.2,4,0.5c1.2,0.7,2.1,1.8,2.4,3.2   C74.3,41.3,74.1,42.7,73.4,43.9L73.4,43.9z M28.8,34.9h18c0.6,0,1,0.5,1,1s-0.5,1-1,1h-18c-0.6,0-1-0.5-1-1S28.2,34.9,28.8,34.9   L28.8,34.9z M28.8,29.3h11.2c0.6,0,1,0.5,1,1c0,0.6-0.5,1-1,1H28.8c-0.6,0-1-0.5-1-1C27.7,29.8,28.2,29.3,28.8,29.3z M22.2,26.5h-9   c-1.2,0-2.1,0.9-2.1,2.1v9c0,1.2,0.9,2.1,2.1,2.1h9c1.2,0,2.1-0.9,2.1-2.1v-9C24.3,27.5,23.4,26.5,22.2,26.5L22.2,26.5z M22.3,37.6   C22.3,37.7,22.2,37.7,22.3,37.6l-9,0.1c0,0-0.1,0-0.1-0.1v-9c0,0,0-0.1,0.1-0.1h9c0,0,0.1,0,0.1,0.1V37.6z M21,30.5   c0.4,0.4,0.4,1,0,1.4l-3.8,3.8c-0.2,0.2-0.5,0.3-0.7,0.3c0,0-0.1,0-0.1,0c-0.3,0-0.6-0.2-0.8-0.5l-1.3-2.2   c-0.3-0.5-0.1-1.1,0.4-1.4c0.5-0.3,1.1-0.1,1.4,0.4l0.6,1.1l2.9-2.9C19.9,30.1,20.6,30.1,21,30.5L21,30.5z M22.2,42.1h-9   c-1.2,0-2.1,0.9-2.1,2.1v9c0,1.2,0.9,2.1,2.1,2.1h9c1.2,0,2.1-0.9,2.1-2.1v-9C24.3,43.1,23.4,42.1,22.2,42.1z M22.3,53.2   C22.3,53.2,22.2,53.3,22.3,53.2l-9,0.1c0,0-0.1,0-0.1-0.1v-9c0,0,0-0.1,0.1-0.1h9c0,0,0.1,0,0.1,0.1V53.2z M22.2,57.7h-9   c-1.2,0-2.1,0.9-2.1,2.1v9c0,1.2,0.9,2.1,2.1,2.1h9c1.2,0,2.1-0.9,2.1-2.1v-9C24.3,58.7,23.4,57.7,22.2,57.7z M22.3,68.8   C22.3,68.8,22.2,68.9,22.3,68.8l-9,0.1c0,0-0.1,0-0.1-0.1v-9c0,0,0-0.1,0.1-0.1h9c0,0,0.1,0,0.1,0.1V68.8z M21,46.1   c0.4,0.4,0.4,1,0,1.4l-3.8,3.8c-0.2,0.2-0.5,0.3-0.7,0.3c0,0-0.1,0-0.1,0c-0.3,0-0.6-0.2-0.8-0.5l-1.3-2.2   c-0.3-0.5-0.1-1.1,0.4-1.4c0.5-0.3,1.1-0.1,1.4,0.4l0.6,1.1l2.9-2.9C19.9,45.7,20.6,45.7,21,46.1L21,46.1z M21,61.7   c0.4,0.4,0.4,1,0,1.4l-3.8,3.8c-0.2,0.2-0.5,0.3-0.7,0.3c0,0-0.1,0-0.1,0c-0.3,0-0.6-0.2-0.8-0.5l-1.3-2.2   c-0.3-0.5-0.1-1.1,0.4-1.4c0.5-0.3,1.1-0.1,1.4,0.4l0.6,1.1l2.9-2.9C19.9,61.3,20.6,61.3,21,61.7L21,61.7z M47.8,51.5   c0,0.6-0.5,1-1,1h-18c-0.6,0-1-0.5-1-1s0.5-1,1-1h18C47.3,50.5,47.8,51,47.8,51.5z M47.8,45.9c0,0.6-0.5,1-1,1h-18   c-0.6,0-1-0.5-1-1s0.5-1,1-1h18C47.3,44.9,47.8,45.4,47.8,45.9z M38.9,61.5c0,0.6-0.5,1-1,1h-9.1c-0.6,0-1-0.5-1-1c0-0.6,0.5-1,1-1   h9.1C38.4,60.5,38.9,61,38.9,61.5z M36.3,67.1c0,0.6-0.5,1-1,1h-6.5c-0.6,0-1-0.5-1-1c0-0.6,0.5-1,1-1h6.5   C35.8,66.1,36.3,66.5,36.3,67.1z M11.1,22.5c0-0.6,0.5-1,1-1H34c0.6,0,1,0.5,1,1c0,0.6-0.5,1-1,1H12.1   C11.6,23.5,11.1,23.1,11.1,22.5z"></path>
</g>
</svg>