<svg fill="#6C5CE7" id="Layer_1" data-name="Layer 1" xmlns="http://www.w3.org/2000/svg" viewBox="0 0 50 50" xmlns:c2pa="http://c2pa.org/manifest"><metadata><c2pa:manifest>AAAWgmp1bWIAAAAeanVtZGMycGEAEQAQgAAAqgA4m3EDYzJwYQAAABZcanVtYgAAAEdqdW1kYzJtYQARABCAAACqADibcQN1cm46YzJwYToxMjk3MjE5MC0wYzkwLTQ5MDctOWZkYi1lZTEyZDczMTY5NzUAAAADl2p1bWIAAAApanVtZGMyYXMAEQAQgAAAqgA4m3EDYzJwYS5hc3NlcnRpb25zAAAAALxqdW1iAAAARGp1bWRjYm9yABEAEIAAAKoAOJtxE2MycGEuaW5ncmVkaWVudC52MwAAAAAYYzJzaHfH55q/3Hcl6SYbH+CL1uUAAABwY2JvcqNpZGM6Zm9ybWF0bWltYWdlL3N2Zyt4bWxqaW5zdGFuY2VJRHgseG1wOmlpZDpjZjllMjNmYi1iYWJhLTQ0ZWItODFiMy03NzA2YmQyMTA3MTVscmVsYXRpb25zaGlwaHBhcmVudE9mAAAB4mp1bWIAAABBanVtZGNib3IAEQAQgAAAqgA4m3ETYzJwYS5hY3Rpb25zLnYyAAAAABhjMnNoRl7BpZtd0wlgcDKo00/JdAAAAZljYm9yomdhY3Rpb25zgqJmYWN0aW9ua2MycGEub3BlbmVkanBhcmFtZXRlcnOha2luZ3JlZGllbnRzgaJjdXJseC1zZWxmI2p1bWJmPWMycGEuYXNzZXJ0aW9ucy9jMnBhLmluZ3JlZGllbnQudjNkaGFzaFgg/yZi2Tv4AVAR8li/qyeKBKpPiJFNWh54uxijR75UXhWkZmFjdGlvbngdY29tLmFudGhyb3BpYy5jbGF1ZGUucHJvdmlkZWRqcGFyYW1ldGVyc6F4H2NvbS5hbnRocm9waWMub3JpZ2luLWNvbmZpZGVuY2VndW5rbm93bmtkZXNjcmlwdGlvbnhmQ2xhdWRlIHByb3ZpZGVkIHRoaXMgZmlsZSBhdCB0aGUgcmVxdWVzdCBvZiBhIHVzZXIgYW5kIG1heSBoYXZlIGNyZWF0ZWQgb3IgbW9kaWZpZWQgdGhlIGZpbGUgY29udGVudHMubXNvZnR3YXJlQWdlbnShZG5hbWVmQ2xhdWRlcmFsbEFjdGlvbnNJbmNsdWRlZPUAAADIanVtYgAAAEBqdW1kY2JvcgARABCAAACqADibcRNjMnBhLmhhc2guZGF0YQAAAAAYYzJzaPa7iX8NFYOKpmgRG+wrzK4AAACAY2JvcqVjYWxnZnNoYTI1NmNwYWRNAAAAAAAAAAAAAAAAAGRoYXNoWCCOLHcEo+LW4CQ2gaLpqr4RQeg+3dvDbvOVzZAji2BFaWRuYW1lbmp1bWJmIG1hbmlmZXN0amV4Y2x1c2lvbnOBomVzdGFydBirZmxlbmd0aBkeBAAAAj5qdW1iAAAAJ2p1bWRjMmNsABEAEIAAAKoAOJtxA2MycGEuY2xhaW0udjIAAAACD2Nib3KlY2FsZ2ZzaGEyNTZpc2lnbmF0dXJleE1zZWxmI2p1bWJmPS9jMnBhL3VybjpjMnBhOjEyOTcyMTkwLTBjOTAtNDkwNy05ZmRiLWVlMTJkNzMxNjk3NS9jMnBhLnNpZ25hdHVyZWppbnN0YW5jZUlEeCx4bXA6aWlkOjY3YTUwNTM3LWM0YjgtNDg4MS05ZTRmLThkNTU1YjJhMzMwMXJjcmVhdGVkX2Fzc2VydGlvbnODomN1cmx4LXNlbGYjanVtYmY9YzJwYS5hc3NlcnRpb25zL2MycGEuaW5ncmVkaWVudC52M2RoYXNoWCD/JmLZO/gBUBHyWL+rJ4oEqk+IkU1aHni7GKNHvlReFaJjdXJseCpzZWxmI2p1bWJmPWMycGEuYXNzZXJ0aW9ucy9jMnBhLmFjdGlvbnMudjJkaGFzaFggElvlZFrNPAetLfYovbMIOObVP0d32l0nJA9p/LgFW4qiY3VybHgpc2VsZiNqdW1iZj1jMnBhLmFzc2VydGlvbnMvYzJwYS5oYXNoLmRhdGFkaGFzaFggk4uK0D4ewpr8F2lBn55cp7CBPTpAhY4VfZ5wAzYCPuV0Y2xhaW1fZ2VuZXJhdG9yX2luZm+jZG5hbWVvQW50aHJvcGljIEZpbGVzZ3ZlcnNpb25lMS4wLjBrc3BlY1ZlcnNpb25lMi40LjAAABA4anVtYgAAAChqdW1kYzJjcwARABCAAACqADibcQNjMnBhLnNpZ25hdHVyZQAAABAIY2JvctKEWQISogEmGCFZAgowggIGMIIBjaADAgECAhRA5aAK7sI50L64g/oGQgU9Z1UTADAKBggqhkjOPQQDAzBJMRcwFQYDVQQKEw5BbnRocm9waWMsIFBCQzEuMCwGA1UEAxMlQW50aHJvcGljIENvbnRlbnQgQ3JlZGVudGlhbHMgUm9vdCBDQTAeFw0yNjA4MDcxODQzNTZaFw0yODA4MDYxOTQzNTZaMEQxFzAVBgNVBAoTDkFudGhyb3BpYywgUEJDMSkwJwYDVQQDEyBBbnRocm9waWMgQ2xhdWRlIENvbnRlbnQgU2lnbmluZzBZMBMGByqGSM49AgEGCCqGSM49AwEHA0IABJh6CmvLUBgFFNU0vUKlOVtE6djd17L5SuwX0LemFisBM3dkd/3cyjxFA3Qo5S46fX0/ihY0VZ7mfb9KF703t5OjWDBWMA4GA1UdDwEB/wQEAwIHgDAVBgNVHSUEDjAMBgorBgEEAYPoXgIBMAwGA1UdEwEB/wQCMAAwHwYDVR0jBBgwFoAUzlHiBIFOZFsj+OPEz5o+nMHXXMIwCgYIKoZIzj0EAwMDZwAwZAIwMXMdFJ4BetLLVY7ORuE9noqbbAZOZn/aArXyTwFAZfKrPzxF2vPoJNf1+UCdg1XGAjBwX1zd9WGqYkqmL5SFqw1QySjr1zJfpJM9+1rdDwSPLMOPOjKuiXjoU/pUUeG9RwmhY3BhZFkNngAAAAAAAAAAAAAAAAAAAAAAAAAAAAAAAAAAAAAAAAAAAAAAAAAAAAAAAAAAAAAAAAAAAAAAAAAAAAAAAAAAAAAAAAAAAAAAAAAAAAAAAAAAAAAAAAAAAAAAAAAAAAAAAAAAAAAAAAAAAAAAAAAAAAAAAAAAAAAAAAAAAAAAAAAAAAAAAAAAAAAAAAAAAAAAAAAAAAAAAAAAAAAAAAAAAAAAAAAAAAAAAAAAAAAAAAAAAAAAAAAAAAAAAAAAAAAAAAAAAAAAAAAAAAAAAAAAAAAAAAAAAAAAAAAAAAAAAAAAAAAAAAAAAAAAAAAAAAAAAAAAAAAAAAAAAAAAAAAAAAAAAAAAAAAAAAAAAAAAAAAAAAAAAAAAAAAAAAAAAAAAAAAAAAAAAAAAAAAAAAAAAAAAAAAAAAAAAAAAAAAAAAAAAAAAAAAAAAAAAAAAAAAAAAAAAAAAAAAAAAAAAAAAAAAAAAAAAAAAAAAAAAAAAAAAAAAAAAAAAAAAAAAAAAAAAAAAAAAAAAAAAAAAAAAAAAAAAAAAAAAAAAAAAAAAAAAAAAAAAAAAAAAAAAAAAAAAAAAAAAAAAAAAAAAAAAAAAAAAAAAAAAAAAAAAAAAAAAAAAAAAAAAAAAAAAAAAAAAAAAAAAAAAAAAAAAAAAAAAAAAAAAAAAAAAAAAAAAAAAAAAAAAAAAAAAAAAAAAAAAAAAAAAAAAAAAAAAAAAAAAAAAAAAAAAAAAAAAAAAAAAAAAAAAAAAAAAAAAAAAAAAAAAAAAAAAAAAAAAAAAAAAAAAAAAAAAAAAAAAAAAAAAAAAAAAAAAAAAAAAAAAAAAAAAAAAAAAAAAAAAAAAAAAAAAAAAAAAAAAAAAAAAAAAAAAAAAAAAAAAAAAAAAAAAAAAAAAAAAAAAAAAAAAAAAAAAAAAAAAAAAAAAAAAAAAAAAAAAAAAAAAAAAAAAAAAAAAAAAAAAAAAAAAAAAAAAAAAAAAAAAAAAAAAAAAAAAAAAAAAAAAAAAAAAAAAAAAAAAAAAAAAAAAAAAAAAAAAAAAAAAAAAAAAAAAAAAAAAAAAAAAAAAAAAAAAAAAAAAAAAAAAAAAAAAAAAAAAAAAAAAAAAAAAAAAAAAAAAAAAAAAAAAAAAAAAAAAAAAAAAAAAAAAAAAAAAAAAAAAAAAAAAAAAAAAAAAAAAAAAAAAAAAAAAAAAAAAAAAAAAAAAAAAAAAAAAAAAAAAAAAAAAAAAAAAAAAAAAAAAAAAAAAAAAAAAAAAAAAAAAAAAAAAAAAAAAAAAAAAAAAAAAAAAAAAAAAAAAAAAAAAAAAAAAAAAAAAAAAAAAAAAAAAAAAAAAAAAAAAAAAAAAAAAAAAAAAAAAAAAAAAAAAAAAAAAAAAAAAAAAAAAAAAAAAAAAAAAAAAAAAAAAAAAAAAAAAAAAAAAAAAAAAAAAAAAAAAAAAAAAAAAAAAAAAAAAAAAAAAAAAAAAAAAAAAAAAAAAAAAAAAAAAAAAAAAAAAAAAAAAAAAAAAAAAAAAAAAAAAAAAAAAAAAAAAAAAAAAAAAAAAAAAAAAAAAAAAAAAAAAAAAAAAAAAAAAAAAAAAAAAAAAAAAAAAAAAAAAAAAAAAAAAAAAAAAAAAAAAAAAAAAAAAAAAAAAAAAAAAAAAAAAAAAAAAAAAAAAAAAAAAAAAAAAAAAAAAAAAAAAAAAAAAAAAAAAAAAAAAAAAAAAAAAAAAAAAAAAAAAAAAAAAAAAAAAAAAAAAAAAAAAAAAAAAAAAAAAAAAAAAAAAAAAAAAAAAAAAAAAAAAAAAAAAAAAAAAAAAAAAAAAAAAAAAAAAAAAAAAAAAAAAAAAAAAAAAAAAAAAAAAAAAAAAAAAAAAAAAAAAAAAAAAAAAAAAAAAAAAAAAAAAAAAAAAAAAAAAAAAAAAAAAAAAAAAAAAAAAAAAAAAAAAAAAAAAAAAAAAAAAAAAAAAAAAAAAAAAAAAAAAAAAAAAAAAAAAAAAAAAAAAAAAAAAAAAAAAAAAAAAAAAAAAAAAAAAAAAAAAAAAAAAAAAAAAAAAAAAAAAAAAAAAAAAAAAAAAAAAAAAAAAAAAAAAAAAAAAAAAAAAAAAAAAAAAAAAAAAAAAAAAAAAAAAAAAAAAAAAAAAAAAAAAAAAAAAAAAAAAAAAAAAAAAAAAAAAAAAAAAAAAAAAAAAAAAAAAAAAAAAAAAAAAAAAAAAAAAAAAAAAAAAAAAAAAAAAAAAAAAAAAAAAAAAAAAAAAAAAAAAAAAAAAAAAAAAAAAAAAAAAAAAAAAAAAAAAAAAAAAAAAAAAAAAAAAAAAAAAAAAAAAAAAAAAAAAAAAAAAAAAAAAAAAAAAAAAAAAAAAAAAAAAAAAAAAAAAAAAAAAAAAAAAAAAAAAAAAAAAAAAAAAAAAAAAAAAAAAAAAAAAAAAAAAAAAAAAAAAAAAAAAAAAAAAAAAAAAAAAAAAAAAAAAAAAAAAAAAAAAAAAAAAAAAAAAAAAAAAAAAAAAAAAAAAAAAAAAAAAAAAAAAAAAAAAAAAAAAAAAAAAAAAAAAAAAAAAAAAAAAAAAAAAAAAAAAAAAAAAAAAAAAAAAAAAAAAAAAAAAAAAAAAAAAAAAAAAAAAAAAAAAAAAAAAAAAAAAAAAAAAAAAAAAAAAAAAAAAAAAAAAAAAAAAAAAAAAAAAAAAAAAAAAAAAAAAAAAAAAAAAAAAAAAAAAAAAAAAAAAAAAAAAAAAAAAAAAAAAAAAAAAAAAAAAAAAAAAAAAAAAAAAAAAAAAAAAAAAAAAAAAAAAAAAAAAAAAAAAAAAAAAAAAAAAAAAAAAAAAAAAAAAAAAAAAAAAAAAAAAAAAAAAAAAAAAAAAAAAAAAAAAAAAAAAAAAAAAAAAAAAAAAAAAAAAAAAAAAAAAAAAAAAAAAAAAAAAAAAAAAAAAAAAAAAAAAAAAAAAAAAAAAAAAAAAAAAAAAAAAAAAAAAAAAAAAAAAAAAAAAAAAAAAAAAAAAAAAAAAAAAAAAAAAAAAAAAAAAAAAAAAAAAAAAAAAAAAAAAAAAAAAAAAAAAAAAAAAAAAAAAAAAAAAAAAAAAAAAAAAAAAAAAAAAAAAAAAAAAAAAAAAAAAAAAAAAAAAAAAAAAAAAAAAAAAAAAAAAAAAAAAAAAAAAAAAAAAAAAAAAAAAAAAAAAAAAAAAAAAAAAAAAAAAAAAAAAAAAAAAAAAAAAAAAAAAAAAAAAAAAAAAAAAAAAAAAAAAAAAAAAAAAAAAAAAAAAAAAAAAAAAAAAAAAAAAAAAAAAAAAAAAAAAAAAAAAAAAAAAAAAAAAAAAAAAAAAAAAAAAAAAAAAAAAAAAAAAAAAAAAAAAAAAAAAAAAAAAAAAAAAAAAAAAAAAAAAAAAAAAAAAAAAAAAAAAAAAAAAAAAAAAAAAAAAAAAAAAAAAAAAAAAAAAAAAAAAAAAAAAAAAAAAAAAAAAAAAAAAAAAAAAAAAAAAAAAAAAAAAAAAAAAAAAAAAAAAAAAAAAAAAAAAAAAAAAAAAAAAAAAAAAAAAAAAAAAAAAAAAAAAAAAAAAAAAAAAAAAAAAAAAAAAAAAAAAAAAAAAAAAAAAAAAAAAAAAAAAAAAAAAAAAAAAAAAAAAAAAAAAAAAAAAAAAAAAAAAAAAAAAAAAAAAAAAAAAAAAAAAAAAAAAAAAAAAAAAAAAAAAAAAAAAAAAAAAAAAAAAAAAAAAAAAAAAAAAAAAAAAAAAAAAAAAAAAAAAAAAAAAAAAAAAAAAAAAAAAAAAAAAAAAAAAAAAAAAAAAAAAAAAAAAAAAAAAAAAAAAAAAAAAAAAAAAAAAAAAAAAAAAAAAAAAAAAAAAAAAAAAAAAAAAAAAAAAAAAAAAAAAAAAAAAAAAAAAAAAAAAAAAAAAAAAAAAAAAAAAAAAAAAAAAAAAAAAAAAAAAAAAAAAAAAAAAAAAAAAAAAAAAAAAAAAAAAAAAAAAAAAAAAAAAAAAAAAAAAAAAAAAAAAAAAAAAAAAAAAAAAAAAAAAAAAAAAAAAAAAAAAAAAAAAAAAAAAAAAAAAAAAAAAAAAAAAAAAAAAAAAAAAAAAAAAAAAAAAAAAAAAAAAAAAAAAAAAAAAAAAAAAAAAAAAAAAAAAAAAAAAAAAAAAAAAAAAAAAAAAAAAAAAAAAAAAAAAAAAAAAAAAAAAAAAAAAAAAAAAAAAAAAAAAAAAAAAAAAAAAAAAAAAAAAAAAAAAAAAAAAAAAAAAAAAAAAAAAAAAAAAAAAAAAAAAAAAAAAAAAAAAAAAAAAAAAAAAAAAAAAAAAAAAAAAAAAAAAAAAAAAAAAAAAAAAAAAAAAAAAAAAAAAAAAAAAAAAAAAAAAAAAAAAAAAAAAAAAAAAAAAAAAAAAAAAAAAAAAAAAAAAAAAAAAAAAAAAAAAAAAAAAAAAAAAAAAAAAAAAAAAAAAAAAAAAAAAAAAAAAAAAAAAAAAAAAAAAAAAAAAAAAAAAAAAAAAAAAAAAAAAAAAAAAAAAAAAAAAAAAAAAAAAAAAAAAAAAAAAAAAAAAAAAAAAAAAAAAAAAAAAAAAAAAAAAAAAAAAAAAAAAAAAAAAAAAAAAAAAAAAAAAAAAAAAAAAAAAAAAAAAAAAAAAAAAAAAAAAAAAAAAAAAAAAAAAAAAAAAAAAAAAAAAAAAAAAAAAAAAAAAAAAAAAAAPZYQK7QReFKvsbWR+G42itXWI56gGedh4X7uVfCFsazymlo0An8Y+UQwqdOFqqwzU4VW2yi/DBglyaqFk+vohELajI=</c2pa:manifest></metadata><defs></defs><path d="M24.76.5c1,.15,1.92.25,2.87.46,6.86,1.52,11,5.78,12.69,12.55.23.9.26,1.86.53,2.76a16.57,16.57,0,0,0,1.2,3c.88,1.65,1.87,3.25,2.84,4.86a2.4,2.4,0,0,1-1,3.75q-1.31.7-2.67,1.29a.6.6,0,0,0-.42.7c.06,1.94.08,3.88.08,5.82a2.89,2.89,0,0,1-2,2.85,13.89,13.89,0,0,1-5.3.79c-1.32,0-1.32,0-1.32,1.28s0,2.8,0,4.2a3,3,0,0,1-1.8,2.95A15.8,15.8,0,0,1,25,49.26a23.07,23.07,0,0,1-9.13-.72,10.67,10.67,0,0,1-1.89-.76,2.65,2.65,0,0,1-1.55-3,19,19,0,0,0-.51-7.9A11.23,11.23,0,0,0,9.63,32.7a20.66,20.66,0,0,1-3.3-5,22,22,0,0,1-1.68-7,28.25,28.25,0,0,1,.13-7.29A14.18,14.18,0,0,1,13.7,2.32,22.35,22.35,0,0,1,21.43.58c.25,0,.5,0,.76-.08Zm6,41.79V39.71A1.54,1.54,0,0,1,32.08,38a6.81,6.81,0,0,1,1.56-.14,14.48,14.48,0,0,0,4.25-.51c1.26-.4,1.58-.72,1.58-2,0-2-.08-4-.16-6,0-.7,0-.88.68-1.18,1.12-.52,2.24-1.05,3.35-1.61.68-.35.77-.79.38-1.46-.09-.15-.2-.29-.28-.45-1.11-2-2.25-3.91-3.31-5.9a8.94,8.94,0,0,1-.73-2.15c-.25-1-.34-2.08-.61-3.09-1.39-5.3-4.55-9-9.86-10.64a21.44,21.44,0,0,0-14.62.76,12.68,12.68,0,0,0-8.19,11A28.66,28.66,0,0,0,6.2,21.1,20.09,20.09,0,0,0,7.65,27a18,18,0,0,0,3.14,4.76,13.08,13.08,0,0,1,2.82,5.92,21.4,21.4,0,0,1,.25,7.4,1.13,1.13,0,0,0,.74,1.39,10,10,0,0,0,1.59.64,21.81,21.81,0,0,0,9.16.62,13.19,13.19,0,0,0,4.56-1.3A1.51,1.51,0,0,0,30.79,45C30.77,44.07,30.78,43.18,30.78,42.29Z"></path><path d="M25.17,19.78,27,18.46c.53-.37.8-.4,1.27,0,.64.59,1.24,1.23,1.84,1.87a.75.75,0,0,1,0,1c-.45.61-.89,1.23-1.39,1.92.81.13,1.55.27,2.29.37a.82.82,0,0,1,.81.84c0,.87,0,1.75,0,2.62a.8.8,0,0,1-.77.82l-2.33.37L30,30.12c.43.6.46.82-.05,1.38s-1.16,1.17-1.76,1.74a.79.79,0,0,1-1.12,0c-.61-.46-1.23-.89-1.9-1.37-.13.82-.27,1.58-.38,2.35A.79.79,0,0,1,24,35c-.86,0-1.71,0-2.57,0-.59,0-.77-.21-.87-.81s-.24-1.47-.38-2.29l-1.76,1.27c-.63.45-.84.47-1.42,0S15.81,32,15.25,31.39a.83.83,0,0,1,0-1.17c.45-.59.88-1.2,1.37-1.87L14.49,28c-.77-.12-1-.26-1-1s0-1.62,0-2.42c0-.59.23-.77.82-.87l2.28-.39-1.31-1.8c-.39-.54-.42-.78,0-1.27a24.91,24.91,0,0,1,1.78-1.78c.44-.39.7-.37,1.2,0l1.86,1.34c.13-.82.27-1.57.37-2.32.07-.46.3-.75.76-.77.92,0,1.84,0,2.76,0,.45,0,.69.3.76.77C24.9,18.22,25,19,25.17,19.78Zm5.23,6.8a9,9,0,0,0,0-1.17.46.46,0,0,0-.31-.34c-.61-.13-1.22-.21-1.84-.3a1.42,1.42,0,0,1-.9-2.07c.42-.6.85-1.19,1.26-1.76l-1-1.12L25.8,21.14a1.42,1.42,0,0,1-2.09-.92c-.09-.61-.18-1.23-.29-1.84,0-.11-.17-.28-.27-.29-.41,0-.82,0-1.23,0-.12.79-.22,1.51-.35,2.23a1.43,1.43,0,0,1-2.07.84l-1.81-1.29-1,1a.28.28,0,0,0,.05.12c.42.58.85,1.16,1.26,1.75a1.45,1.45,0,0,1-.86,2c-.63.1-1.26.18-1.88.3-.13,0-.32.18-.33.28,0,.41,0,.82,0,1.23l2.19.35A1.44,1.44,0,0,1,18,29.05l-1.3,1.78,1,1,1.81-1.31a1.43,1.43,0,0,1,2.13.91c.1.69.22,1.37.33,2.1H23.4c.11-.72.22-1.41.33-2.1a1.42,1.42,0,0,1,2.13-.91l1.84,1.33a10.91,10.91,0,0,0,.77-.91.49.49,0,0,0,0-.44c-.36-.54-.77-1.05-1.13-1.59a1.42,1.42,0,0,1,.83-2C28.9,26.81,29.63,26.7,30.4,26.58Z"></path><path d="M12.13,13A4.37,4.37,0,0,1,18.61,8.1,4.32,4.32,0,0,1,22.7,5.35a4.2,4.2,0,0,1,4,2.78A4.36,4.36,0,0,1,33.23,13l.51.1a4.3,4.3,0,0,1-.65,8.51c-.61,0-.94-.21-1-.67s.27-.74.86-.8a2.84,2.84,0,0,0,2.68-2.47,2.79,2.79,0,0,0-2-3.07,2.75,2.75,0,0,0-2.89.73,2.46,2.46,0,0,1-.38.35.67.67,0,0,1-.91-.13.61.61,0,0,1,0-.9c.54-.49,1.15-.89,1.71-1.34a1.41,1.41,0,0,0,.51-.55,2.87,2.87,0,0,0-2-3.75,2.84,2.84,0,0,0-3.47,2.36c0,.17,0,.35-.07.52a.69.69,0,0,1-.73.62.65.65,0,0,1-.7-.69,11.72,11.72,0,0,1,.52-2.1,1.37,1.37,0,0,0,.07-1,2.82,2.82,0,1,0-5.25,2.05c.06.15.16.28.22.42a.75.75,0,0,1-.29,1,.7.7,0,0,1-1-.26c-.27-.59-.43-1.22-.66-1.82a1.4,1.4,0,0,0-.34-.58,2.82,2.82,0,0,0-4.16.73,2.86,2.86,0,0,0,1.15,4c.72.37.89.67.66,1.14s-.69.55-1.36.17a5.51,5.51,0,0,1-1.09-.83,1.13,1.13,0,0,0-.95-.33,2.86,2.86,0,0,0-2.66,2.75,2.82,2.82,0,0,0,2.49,2.9l.33,0c.49.06.77.33.75.75a.72.72,0,0,1-.84.7,4.19,4.19,0,0,1-3.84-2.55,4.31,4.31,0,0,1,3.27-6Z"></path><path d="M22.67,29a3.14,3.14,0,1,1,0-6.28,3.18,3.18,0,0,1,3.17,3.16A3.14,3.14,0,0,1,22.67,29Zm0-4.79A1.64,1.64,0,0,0,21,25.85a1.66,1.66,0,1,0,3.32,0A1.64,1.64,0,0,0,22.65,24.18Z"></path></svg>