<?xml version="1.0"?><svg fill="#6C5CE7" version="1.0" id="Layer_1" xmlns="http://www.w3.org/2000/svg" xmlns:xlink="http://www.w3.org/1999/xlink" x="0px" y="0px" viewBox="0 0 50 50" enable-background="new 0 0 50 50" xml:space="preserve" xmlns:c2pa="http://c2pa.org/manifest"><metadata><c2pa:manifest>AAAWgmp1bWIAAAAeanVtZGMycGEAEQAQgAAAqgA4m3EDYzJwYQAAABZcanVtYgAAAEdqdW1kYzJtYQARABCAAACqADibcQN1cm46YzJwYToxOTBjNjNjMy1jMjI5LTRmOTAtYWUxNC1kMzRkZDE4MGUxNWIAAAADl2p1bWIAAAApanVtZGMyYXMAEQAQgAAAqgA4m3EDYzJwYS5hc3NlcnRpb25zAAAAALxqdW1iAAAARGp1bWRjYm9yABEAEIAAAKoAOJtxE2MycGEuaW5ncmVkaWVudC52MwAAAAAYYzJzaPsbo2hTp2lptDBK8bRDq38AAABwY2JvcqNpZGM6Zm9ybWF0bWltYWdlL3N2Zyt4bWxqaW5zdGFuY2VJRHgseG1wOmlpZDo0MTIzOWZlYS0wYzkzLTQ3Y2QtOWQ4YS0xMTU5OWI3M2RkNjRscmVsYXRpb25zaGlwaHBhcmVudE9mAAAB4mp1bWIAAABBanVtZGNib3IAEQAQgAAAqgA4m3ETYzJwYS5hY3Rpb25zLnYyAAAAABhjMnNoa7firKt7W3niqv0phROLXAAAAZljYm9yomdhY3Rpb25zgqJmYWN0aW9ua2MycGEub3BlbmVkanBhcmFtZXRlcnOha2luZ3JlZGllbnRzgaJjdXJseC1zZWxmI2p1bWJmPWMycGEuYXNzZXJ0aW9ucy9jMnBhLmluZ3JlZGllbnQudjNkaGFzaFggNkme1YugoVaSbfoAt5BfTClTbfSEaEAD64jeMqUvGxKkZmFjdGlvbngdY29tLmFudGhyb3BpYy5jbGF1ZGUucHJvdmlkZWRqcGFyYW1ldGVyc6F4H2NvbS5hbnRocm9waWMub3JpZ2luLWNvbmZpZGVuY2VndW5rbm93bmtkZXNjcmlwdGlvbnhmQ2xhdWRlIHByb3ZpZGVkIHRoaXMgZmlsZSBhdCB0aGUgcmVxdWVzdCBvZiBhIHVzZXIgYW5kIG1heSBoYXZlIGNyZWF0ZWQgb3IgbW9kaWZpZWQgdGhlIGZpbGUgY29udGVudHMubXNvZnR3YXJlQWdlbnShZG5hbWVmQ2xhdWRlcmFsbEFjdGlvbnNJbmNsdWRlZPUAAADIanVtYgAAAEBqdW1kY2JvcgARABCAAACqADibcRNjMnBhLmhhc2guZGF0YQAAAAAYYzJzaMW9ha0bUiYb/XcQMI4YCpMAAACAY2JvcqVjYWxnZnNoYTI1NmNwYWRMAAAAAAAAAAAAAAAAZGhhc2hYIFhVVsdnk8uGu1t/ste9SpBCkpQYq5eytkkoJJU98thWZG5hbWVuanVtYmYgbWFuaWZlc3RqZXhjbHVzaW9uc4GiZXN0YXJ0GQEsZmxlbmd0aBkeBAAAAj5qdW1iAAAAJ2p1bWRjMmNsABEAEIAAAKoAOJtxA2MycGEuY2xhaW0udjIAAAACD2Nib3KlY2FsZ2ZzaGEyNTZpc2lnbmF0dXJleE1zZWxmI2p1bWJmPS9jMnBhL3VybjpjMnBhOjE5MGM2M2MzLWMyMjktNGY5MC1hZTE0LWQzNGRkMTgwZTE1Yi9jMnBhLnNpZ25hdHVyZWppbnN0YW5jZUlEeCx4bXA6aWlkOjk1MmZkNTI5LWVlYjAtNDYxZS1iODAxLTYzY2FmN2ZkMzY2YnJjcmVhdGVkX2Fzc2VydGlvbnODomN1cmx4LXNlbGYjanVtYmY9YzJwYS5hc3NlcnRpb25zL2MycGEuaW5ncmVkaWVudC52M2RoYXNoWCA2SZ7Vi6ChVpJt+gC3kF9MKVNt9IRoQAPriN4ypS8bEqJjdXJseCpzZWxmI2p1bWJmPWMycGEuYXNzZXJ0aW9ucy9jMnBhLmFjdGlvbnMudjJkaGFzaFggq/pBXUlj43XnpzLnUWAeaafeq5Swr/8Np3ZGnzvug+GiY3VybHgpc2VsZiNqdW1iZj1jMnBhLmFzc2VydGlvbnMvYzJwYS5oYXNoLmRhdGFkaGFzaFgg0S+vM1Bo/FcqYClpHI5C+gkA6vdFoxhQKD18kgJ1jGl0Y2xhaW1fZ2VuZXJhdG9yX2luZm+jZG5hbWVvQW50aHJvcGljIEZpbGVzZ3ZlcnNpb25lMS4wLjBrc3BlY1ZlcnNpb25lMi40LjAAABA4anVtYgAAAChqdW1kYzJjcwARABCAAACqADibcQNjMnBhLnNpZ25hdHVyZQAAABAIY2JvctKEWQISogEmGCFZAgowggIGMIIBjaADAgECAhRA5aAK7sI50L64g/oGQgU9Z1UTADAKBggqhkjOPQQDAzBJMRcwFQYDVQQKEw5BbnRocm9waWMsIFBCQzEuMCwGA1UEAxMlQW50aHJvcGljIENvbnRlbnQgQ3JlZGVudGlhbHMgUm9vdCBDQTAeFw0yNjA4MDcxODQzNTZaFw0yODA4MDYxOTQzNTZaMEQxFzAVBgNVBAoTDkFudGhyb3BpYywgUEJDMSkwJwYDVQQDEyBBbnRocm9waWMgQ2xhdWRlIENvbnRlbnQgU2lnbmluZzBZMBMGByqGSM49AgEGCCqGSM49AwEHA0IABJh6CmvLUBgFFNU0vUKlOVtE6djd17L5SuwX0LemFisBM3dkd/3cyjxFA3Qo5S46fX0/ihY0VZ7mfb9KF703t5OjWDBWMA4GA1UdDwEB/wQEAwIHgDAVBgNVHSUEDjAMBgorBgEEAYPoXgIBMAwGA1UdEwEB/wQCMAAwHwYDVR0jBBgwFoAUzlHiBIFOZFsj+OPEz5o+nMHXXMIwCgYIKoZIzj0EAwMDZwAwZAIwMXMdFJ4BetLLVY7ORuE9noqbbAZOZn/aArXyTwFAZfKrPzxF2vPoJNf1+UCdg1XGAjBwX1zd9WGqYkqmL5SFqw1QySjr1zJfpJM9+1rdDwSPLMOPOjKuiXjoU/pUUeG9RwmhY3BhZFkNngAAAAAAAAAAAAAAAAAAAAAAAAAAAAAAAAAAAAAAAAAAAAAAAAAAAAAAAAAAAAAAAAAAAAAAAAAAAAAAAAAAAAAAAAAAAAAAAAAAAAAAAAAAAAAAAAAAAAAAAAAAAAAAAAAAAAAAAAAAAAAAAAAAAAAAAAAAAAAAAAAAAAAAAAAAAAAAAAAAAAAAAAAAAAAAAAAAAAAAAAAAAAAAAAAAAAAAAAAAAAAAAAAAAAAAAAAAAAAAAAAAAAAAAAAAAAAAAAAAAAAAAAAAAAAAAAAAAAAAAAAAAAAAAAAAAAAAAAAAAAAAAAAAAAAAAAAAAAAAAAAAAAAAAAAAAAAAAAAAAAAAAAAAAAAAAAAAAAAAAAAAAAAAAAAAAAAAAAAAAAAAAAAAAAAAAAAAAAAAAAAAAAAAAAAAAAAAAAAAAAAAAAAAAAAAAAAAAAAAAAAAAAAAAAAAAAAAAAAAAAAAAAAAAAAAAAAAAAAAAAAAAAAAAAAAAAAAAAAAAAAAAAAAAAAAAAAAAAAAAAAAAAAAAAAAAAAAAAAAAAAAAAAAAAAAAAAAAAAAAAAAAAAAAAAAAAAAAAAAAAAAAAAAAAAAAAAAAAAAAAAAAAAAAAAAAAAAAAAAAAAAAAAAAAAAAAAAAAAAAAAAAAAAAAAAAAAAAAAAAAAAAAAAAAAAAAAAAAAAAAAAAAAAAAAAAAAAAAAAAAAAAAAAAAAAAAAAAAAAAAAAAAAAAAAAAAAAAAAAAAAAAAAAAAAAAAAAAAAAAAAAAAAAAAAAAAAAAAAAAAAAAAAAAAAAAAAAAAAAAAAAAAAAAAAAAAAAAAAAAAAAAAAAAAAAAAAAAAAAAAAAAAAAAAAAAAAAAAAAAAAAAAAAAAAAAAAAAAAAAAAAAAAAAAAAAAAAAAAAAAAAAAAAAAAAAAAAAAAAAAAAAAAAAAAAAAAAAAAAAAAAAAAAAAAAAAAAAAAAAAAAAAAAAAAAAAAAAAAAAAAAAAAAAAAAAAAAAAAAAAAAAAAAAAAAAAAAAAAAAAAAAAAAAAAAAAAAAAAAAAAAAAAAAAAAAAAAAAAAAAAAAAAAAAAAAAAAAAAAAAAAAAAAAAAAAAAAAAAAAAAAAAAAAAAAAAAAAAAAAAAAAAAAAAAAAAAAAAAAAAAAAAAAAAAAAAAAAAAAAAAAAAAAAAAAAAAAAAAAAAAAAAAAAAAAAAAAAAAAAAAAAAAAAAAAAAAAAAAAAAAAAAAAAAAAAAAAAAAAAAAAAAAAAAAAAAAAAAAAAAAAAAAAAAAAAAAAAAAAAAAAAAAAAAAAAAAAAAAAAAAAAAAAAAAAAAAAAAAAAAAAAAAAAAAAAAAAAAAAAAAAAAAAAAAAAAAAAAAAAAAAAAAAAAAAAAAAAAAAAAAAAAAAAAAAAAAAAAAAAAAAAAAAAAAAAAAAAAAAAAAAAAAAAAAAAAAAAAAAAAAAAAAAAAAAAAAAAAAAAAAAAAAAAAAAAAAAAAAAAAAAAAAAAAAAAAAAAAAAAAAAAAAAAAAAAAAAAAAAAAAAAAAAAAAAAAAAAAAAAAAAAAAAAAAAAAAAAAAAAAAAAAAAAAAAAAAAAAAAAAAAAAAAAAAAAAAAAAAAAAAAAAAAAAAAAAAAAAAAAAAAAAAAAAAAAAAAAAAAAAAAAAAAAAAAAAAAAAAAAAAAAAAAAAAAAAAAAAAAAAAAAAAAAAAAAAAAAAAAAAAAAAAAAAAAAAAAAAAAAAAAAAAAAAAAAAAAAAAAAAAAAAAAAAAAAAAAAAAAAAAAAAAAAAAAAAAAAAAAAAAAAAAAAAAAAAAAAAAAAAAAAAAAAAAAAAAAAAAAAAAAAAAAAAAAAAAAAAAAAAAAAAAAAAAAAAAAAAAAAAAAAAAAAAAAAAAAAAAAAAAAAAAAAAAAAAAAAAAAAAAAAAAAAAAAAAAAAAAAAAAAAAAAAAAAAAAAAAAAAAAAAAAAAAAAAAAAAAAAAAAAAAAAAAAAAAAAAAAAAAAAAAAAAAAAAAAAAAAAAAAAAAAAAAAAAAAAAAAAAAAAAAAAAAAAAAAAAAAAAAAAAAAAAAAAAAAAAAAAAAAAAAAAAAAAAAAAAAAAAAAAAAAAAAAAAAAAAAAAAAAAAAAAAAAAAAAAAAAAAAAAAAAAAAAAAAAAAAAAAAAAAAAAAAAAAAAAAAAAAAAAAAAAAAAAAAAAAAAAAAAAAAAAAAAAAAAAAAAAAAAAAAAAAAAAAAAAAAAAAAAAAAAAAAAAAAAAAAAAAAAAAAAAAAAAAAAAAAAAAAAAAAAAAAAAAAAAAAAAAAAAAAAAAAAAAAAAAAAAAAAAAAAAAAAAAAAAAAAAAAAAAAAAAAAAAAAAAAAAAAAAAAAAAAAAAAAAAAAAAAAAAAAAAAAAAAAAAAAAAAAAAAAAAAAAAAAAAAAAAAAAAAAAAAAAAAAAAAAAAAAAAAAAAAAAAAAAAAAAAAAAAAAAAAAAAAAAAAAAAAAAAAAAAAAAAAAAAAAAAAAAAAAAAAAAAAAAAAAAAAAAAAAAAAAAAAAAAAAAAAAAAAAAAAAAAAAAAAAAAAAAAAAAAAAAAAAAAAAAAAAAAAAAAAAAAAAAAAAAAAAAAAAAAAAAAAAAAAAAAAAAAAAAAAAAAAAAAAAAAAAAAAAAAAAAAAAAAAAAAAAAAAAAAAAAAAAAAAAAAAAAAAAAAAAAAAAAAAAAAAAAAAAAAAAAAAAAAAAAAAAAAAAAAAAAAAAAAAAAAAAAAAAAAAAAAAAAAAAAAAAAAAAAAAAAAAAAAAAAAAAAAAAAAAAAAAAAAAAAAAAAAAAAAAAAAAAAAAAAAAAAAAAAAAAAAAAAAAAAAAAAAAAAAAAAAAAAAAAAAAAAAAAAAAAAAAAAAAAAAAAAAAAAAAAAAAAAAAAAAAAAAAAAAAAAAAAAAAAAAAAAAAAAAAAAAAAAAAAAAAAAAAAAAAAAAAAAAAAAAAAAAAAAAAAAAAAAAAAAAAAAAAAAAAAAAAAAAAAAAAAAAAAAAAAAAAAAAAAAAAAAAAAAAAAAAAAAAAAAAAAAAAAAAAAAAAAAAAAAAAAAAAAAAAAAAAAAAAAAAAAAAAAAAAAAAAAAAAAAAAAAAAAAAAAAAAAAAAAAAAAAAAAAAAAAAAAAAAAAAAAAAAAAAAAAAAAAAAAAAAAAAAAAAAAAAAAAAAAAAAAAAAAAAAAAAAAAAAAAAAAAAAAAAAAAAAAAAAAAAAAAAAAAAAAAAAAAAAAAAAAAAAAAAAAAAAAAAAAAAAAAAAAAAAAAAAAAAAAAAAAAAAAAAAAAAAAAAAAAAAAAAAAAAAAAAAAAAAAAAAAAAAAAAAAAAAAAAAAAAAAAAAAAAAAAAAAAAAAAAAAAAAAAAAAAAAAAAAAAAAAAAAAAAAAAAAAAAAAAAAAAAAAAAAAAAAAAAAAAAAAAAAAAAAAAAAAAAAAAAAAAAAAAAAAAAAAAAAAAAAAAAAAAAAAAAAAAAAAAAAAAAAAAAAAAAAAAAAAAAAAAAAAAAAAAAAAAAAAAAAAAAAAAAAAAAAAAAAAAAAAAAAAAAAAAAAAAAAAAAAAAAAAAAAAAAAAAAAAAAAAAAAAAAAAAAAAAAAAAAAAAAAAAAAAAAAAAAAAAAAAAAAAAAAAAAAAAAAAAAAAAAAAAAAAAAAAAAAAAAAAAAAAAAAAAAAAAAAAAAAAAAAAAAAAAAAAAAAAAAAAAAAAAAAAAAAAAAAAAAAAAAAAAAAAAAAAAAAAAAAAAAAAAAAAAAAAAAAAAAAAAAAAAAAAAAAAAAAAAAAAAAAAAAAAAAAAAAAAAAAAAAAAAAAAAAAAAAAAAAAAAAAAAAAAAAAAAAAAAAAAAAAAAAAAAAAAAAAAAAAAAAAAAAAAAAAAAAAAAAAAAAAAAAAAAAAAAAAAAAAAAAAAAAAAAAAAAAAAAAAAAAAAAAAAAAAAAAAAAAAAAAAAAAAAAAAAAAAAAAAAAAAAAAAAAAAAAAAAAAAAAAAAAAAAAAAAAAAAAAAAAAAAAAAAAAAAAAAAAAAAAAAAAAAAAAAAAAAAAAAAAAAAAAAAAAAAAAAAAAAAAAAAAAAAAAAAAAAAAAAAAAAAAAAAAAAAAAAAAAAAAAAAAAAAAAAAAAAAAAAAAAAAAAAAAAAAAAAAAAAAAAAAAAAAAAAAAAAAAAAAAAAAAAAAAAAAAAAAAAAAAAAAAAAAAAAAAAAAAAAAAAAAAAAAAAAAAAAAAAAAAAAAAAAAAAAAAAAAAAAAAAAAAAAAAAAAAAAAAAAAAAAAAAAAAAAAAAAAAAAAAAAAAAAAAAAAAAAAAAAAAAAAAAAAAAAAAAAAAAAAAAAAAAAAAAAAAAAAAAAAAAAAAAAAAAAAAAAAAAAAAAAAAAAAAAAAAAAAAAAAAAAAAAAAAAAAAAAAAAAAAAAAAAAAAAAAAAAAAAAAAAAAAAAAAAAAAAAAAAAAAAAAAAAAAAAAAAAAAAAAAAAAAAAAAAAAAAAAAAAAAAAAAAAAAAAAAAAAAAAAAAAAAAAAAAAAAAAAAAAAAAAAAAAAAAAAAAAAAAAAAAAAAAAAAAAAAAAAAAAAAAAAAAAAAAAAAAAAAAAAAAAAAAAAAAAAAAAAAAAAAAAAAAAAAAAAAAAAAAAAAAAAAAAAAAAAAAAAAAAAAAAAAAAAAAAAAAAAAAAAAAAAAAPZYQEx1iXTTG+qP9QZ8srGj9SoVFJ23B6Gy9SscHOxcDhtUirmSi4bt7SdbXZwevGz+u53+MtlDLEvxwf2t+dxiCrg=</c2pa:manifest></metadata>
<g>
&#x9;<path fill="#6C5CE7" d="M3.1,49.3c-0.1,0-0.1-0.1-0.2-0.1c-1.3-0.4-2-1.6-1.7-3C2,43,2.7,39.7,3.4,36.4c0.2-0.9,0.1-1.8,0.2-2.7   C4,27.2,3.8,20.6,3.8,14.1c0-0.3,0-0.6,0.1-0.9c0.2-1.3,1.3-2.3,2.6-2.3c1.8,0,3.7,0,5.6,0c1.4,0,2.5,1.1,2.7,2.5   c0.1,0.5,0,0.9,0,1.5c-0.5-0.2-0.9-0.4-1.3-0.5c-0.4-0.2-0.9-0.4-1.4-0.5c0.9,0.6,1.9,1.2,2.8,1.9c0.7,0.5,1.3,0.6,2.2,0.4   c1.9-0.5,3.9-1,5.9-1.4c1.1-0.3,2.1,0.3,2.4,1.4c0.3,1-0.3,2-1.4,2.3c-2.7,0.7-5.3,1.3-8,1.9c-0.6,0.1-1.1,0-1.6-0.4   c-1.4-1-2.9-1.9-4.4-2.9C9.9,17,10,17.1,10,17.2c1.1,1.2,2.2,2.3,3.4,3.5c0.3,0.3,0.8,0.5,1.1,0.8c0.1,0.1,0.2,0.3,0.2,0.5   c0,2,0,4.1,0,6.1c0,0.3,0.1,0.7,0.2,1c0.6,1.8,1.3,3.5,1.9,5.3c0.3,1,0.4,2.1,0.6,3.1c0.4,2.9,0.8,5.8,1.2,8.7   c0.2,1.9-0.1,2.5-1.8,3.3c-0.3,0-0.6,0-0.9,0c-1-0.4-1.7-1-1.9-2.1c-0.4-2.8-0.8-5.7-1.2-8.5c-0.1-0.9-0.1-1.9-0.4-2.8   c-0.8-2.4-1.7-4.7-2.6-7.1c-0.2-0.6-0.7-0.2-1-0.3c0,0-0.2,0.3-0.2,0.5c-0.1,1.9-0.1,3.9-0.2,5.8c0,0.8,0,1.6-0.2,2.4   c-0.6,2.9-1.3,5.9-1.9,8.8c-0.1,0.2-0.1,0.5-0.2,0.7c-0.2,1.2-0.7,2.2-2,2.6C3.8,49.3,3.4,49.3,3.1,49.3z"></path>
&#x9;<path fill="#6C5CE7" d="M22.4,49.3c-0.5-0.3-1-0.5-1.4-0.9c-0.5-0.5-0.6-1.1-0.5-1.8c0.2-2.1,0.3-4.3,0.5-6.4   c0.3-2.6,0.2-5.1,0.1-7.7C21,28.6,21,24.5,21,20.4c0-0.1,0-0.1,0-0.2c1.1-0.3,2.2-0.5,3.2-0.8c1.3-0.4,2.2-1.6,2.2-3   c0-1.4-0.9-2.6-2.2-2.9c-0.4-0.1-0.9-0.1-1.4-0.2c0.6-0.8,1.4-1.4,2.4-1.8c0.2-0.1,0.5-0.2,0.7-0.3c0.4-0.1,0.8-0.3,1.1-0.3   c0.3,0.1,0.5,0.5,0.7,0.8c1,1.2,2.1,1.7,4.1,2c0,1.3,0,2.6,0,4c-0.5-0.7-0.9-1.3-1.2-1.9c0,0,0,0-0.1,0c0.5,1.4,1,2.7,1.6,4.1   c0.1,0.1,0.3,0.2,0.4,0.3c2.1,0.9,4.3,1.7,6.4,2.5c0.9,0.4,1.4,1.1,1.3,2c-0.2,1.3-1.4,2-2.7,1.5c-2.1-0.8-4.3-1.7-6.4-2.5   c-2-0.8-1.9-0.7-2.7-2.7c-0.5-1.3-1-2.5-1.5-3.7c0.1,0.6,0.2,1.3,0.3,1.9c0.2,1.1,0.4,2.3,0.6,3.4c0.1,0.8,0.6,1.3,1.3,1.6   c0.8,0.3,1.6,0.7,2.4,1c0.3,0.1,0.4,0.2,0.4,0.5c-0.3,2.3,0.5,4.4,1.3,6.5c0.4,1,0.7,2.1,1,3.1c0.1,0.3,0.1,0.7,0.1,1.1   c0,3.7,0,7.4,0,11.1c0,0.5,0,1,0.1,1.6c-0.1,0.1-0.3,0.1-0.5,0.2c-0.3,0-0.6,0-0.9,0c-0.1-0.1-0.3-0.1-0.4-0.2   c-0.8-0.3-1.4-1-1.5-1.9c-0.4-2.8-0.8-5.6-1.2-8.4c-0.1-1-0.2-2-0.5-3c-0.8-2.4-1.7-4.7-2.6-7.1c0-0.1-0.2-0.3-0.3-0.3   c-0.3,0-0.6,0-0.8,0c0,1.2,0,2.4,0,3.5c0,1.8,0.2,3.7,0.1,5.5c-0.2,3.2-0.5,6.4-0.8,9.6c0,0.5-0.3,1-0.6,1.4   c-0.3,0.4-0.8,0.5-1.2,0.8C23,49.3,22.7,49.3,22.4,49.3z"></path>
&#x9;<path fill="#6C5CE7" d="M47.6,49.3C47.2,49,47,48.6,47,48.1c-0.4-3.7-0.9-7.4-1.3-11.1c-0.1-0.8-0.2-1.7-0.3-2.5   c-2.8,0-5.5,0-8.2,0c0,0.2,0,0.4,0,0.6c0,4.3,0,8.7,0,13c0,0.6-0.2,1-0.7,1.3c-0.2,0-0.3,0-0.5,0c-0.5-0.2-0.7-0.6-0.7-1.2   c0-7,0-14,0-21c0-0.1,0-0.2,0-0.4c0.6,0.2,1.2,0.4,1.7,0.7c0.1,0,0.1,0.3,0.1,0.4c0,1.4,0,2.8,0,4.1c0,0.2,0,0.3,0,0.6   c2.7,0,5.3,0,8,0c-0.2-1.4-0.3-2.8-0.5-4.2c-0.2-1.2-1.3-1.9-2.5-2c-0.4,0-0.8,0-1.2,0c0.2-0.6,0.4-1.2,0.6-1.9   c2.1-0.5,4.5,1.1,5,3.4c0.3,1.5,0.4,3,0.6,4.5c0.4,3.4,0.8,6.8,1.2,10.3c0.2,1.8,0.4,3.6,0.6,5.4c0.1,0.6-0.1,1.1-0.7,1.3   C48,49.3,47.8,49.3,47.6,49.3z"></path>
&#x9;<path fill="#6C5CE7" d="M14.3,5c0,2.4-1.9,4.3-4.3,4.3C7.6,9.3,5.7,7.4,5.7,5c0-2.4,1.9-4.3,4.3-4.3C12.4,0.8,14.3,2.7,14.3,5z"></path>
&#x9;<path fill="#6C5CE7" d="M31.9,3.9c2.4,0,4.3,1.9,4.3,4.3c0,2.4-1.9,4.3-4.3,4.3c-2.4,0-4.3-1.9-4.3-4.3C27.6,5.9,29.6,3.9,31.9,3.9   z"></path>
</g>
</svg>