<svg fill="none" width="512" height="512" viewBox="0 0 512 512" xmlns="http://www.w3.org/2000/svg" xmlns:c2pa="http://c2pa.org/manifest"><metadata><c2pa:manifest>AAAWgmp1bWIAAAAeanVtZGMycGEAEQAQgAAAqgA4m3EDYzJwYQAAABZcanVtYgAAAEdqdW1kYzJtYQARABCAAACqADibcQN1cm46YzJwYTpiMzY1NjJmYi1kNzg3LTRmYTQtYWUwMi04MTBjNzdhYmQ4YTUAAAADl2p1bWIAAAApanVtZGMyYXMAEQAQgAAAqgA4m3EDYzJwYS5hc3NlcnRpb25zAAAAALxqdW1iAAAARGp1bWRjYm9yABEAEIAAAKoAOJtxE2MycGEuaW5ncmVkaWVudC52MwAAAAAYYzJzaBpjJ6NHIM5k6/5QrRp/KQ0AAABwY2JvcqNpZGM6Zm9ybWF0bWltYWdlL3N2Zyt4bWxqaW5zdGFuY2VJRHgseG1wOmlpZDphNDAwMTRmMi0wZmY5LTRlMTAtOGI5Mi1hMGNjNWMzMzRjN2VscmVsYXRpb25zaGlwaHBhcmVudE9mAAAB4mp1bWIAAABBanVtZGNib3IAEQAQgAAAqgA4m3ETYzJwYS5hY3Rpb25zLnYyAAAAABhjMnNobnUpcfLFXHaKOEdH0FcwcQAAAZljYm9yomdhY3Rpb25zgqJmYWN0aW9ua2MycGEub3BlbmVkanBhcmFtZXRlcnOha2luZ3JlZGllbnRzgaJjdXJseC1zZWxmI2p1bWJmPWMycGEuYXNzZXJ0aW9ucy9jMnBhLmluZ3JlZGllbnQudjNkaGFzaFggKWpvzlJ2wMXJmFdK0jEmtYKC9b0pynUDULnd8xBl+rmkZmFjdGlvbngdY29tLmFudGhyb3BpYy5jbGF1ZGUucHJvdmlkZWRqcGFyYW1ldGVyc6F4H2NvbS5hbnRocm9waWMub3JpZ2luLWNvbmZpZGVuY2VndW5rbm93bmtkZXNjcmlwdGlvbnhmQ2xhdWRlIHByb3ZpZGVkIHRoaXMgZmlsZSBhdCB0aGUgcmVxdWVzdCBvZiBhIHVzZXIgYW5kIG1heSBoYXZlIGNyZWF0ZWQgb3IgbW9kaWZpZWQgdGhlIGZpbGUgY29udGVudHMubXNvZnR3YXJlQWdlbnShZG5hbWVmQ2xhdWRlcmFsbEFjdGlvbnNJbmNsdWRlZPUAAADIanVtYgAAAEBqdW1kY2JvcgARABCAAACqADibcRNjMnBhLmhhc2guZGF0YQAAAAAYYzJzaIEKb/xmIY53K3NKbAXvPt4AAACAY2JvcqVjYWxnZnNoYTI1NmNwYWRNAAAAAAAAAAAAAAAAAGRoYXNoWCD1Xi2Q1jhE0ZifqhUdm6q54DwAZPADpVCyWao5hlpvn2RuYW1lbmp1bWJmIG1hbmlmZXN0amV4Y2x1c2lvbnOBomVzdGFydBiiZmxlbmd0aBkeBAAAAj5qdW1iAAAAJ2p1bWRjMmNsABEAEIAAAKoAOJtxA2MycGEuY2xhaW0udjIAAAACD2Nib3KlY2FsZ2ZzaGEyNTZpc2lnbmF0dXJleE1zZWxmI2p1bWJmPS9jMnBhL3VybjpjMnBhOmIzNjU2MmZiLWQ3ODctNGZhNC1hZTAyLTgxMGM3N2FiZDhhNS9jMnBhLnNpZ25hdHVyZWppbnN0YW5jZUlEeCx4bXA6aWlkOmVmN2JjMTg4LTVmYmEtNDk5OC1iZGYyLWQwNjU5NTAyYmU0MnJjcmVhdGVkX2Fzc2VydGlvbnODomN1cmx4LXNlbGYjanVtYmY9YzJwYS5hc3NlcnRpb25zL2MycGEuaW5ncmVkaWVudC52M2RoYXNoWCApam/OUnbAxcmYV0rSMSa1goL1vSnKdQNQud3zEGX6uaJjdXJseCpzZWxmI2p1bWJmPWMycGEuYXNzZXJ0aW9ucy9jMnBhLmFjdGlvbnMudjJkaGFzaFggEMp9LiWeSbs8e4FiuwAU95lj9AChGtyh35iszZ9bUXWiY3VybHgpc2VsZiNqdW1iZj1jMnBhLmFzc2VydGlvbnMvYzJwYS5oYXNoLmRhdGFkaGFzaFggMwh5cc5Rj3HbHwrpilQYko/Da8mFTcgdR8EjIhm9+Qt0Y2xhaW1fZ2VuZXJhdG9yX2luZm+jZG5hbWVvQW50aHJvcGljIEZpbGVzZ3ZlcnNpb25lMS4wLjBrc3BlY1ZlcnNpb25lMi40LjAAABA4anVtYgAAAChqdW1kYzJjcwARABCAAACqADibcQNjMnBhLnNpZ25hdHVyZQAAABAIY2JvctKEWQISogEmGCFZAgowggIGMIIBjaADAgECAhRA5aAK7sI50L64g/oGQgU9Z1UTADAKBggqhkjOPQQDAzBJMRcwFQYDVQQKEw5BbnRocm9waWMsIFBCQzEuMCwGA1UEAxMlQW50aHJvcGljIENvbnRlbnQgQ3JlZGVudGlhbHMgUm9vdCBDQTAeFw0yNjA4MDcxODQzNTZaFw0yODA4MDYxOTQzNTZaMEQxFzAVBgNVBAoTDkFudGhyb3BpYywgUEJDMSkwJwYDVQQDEyBBbnRocm9waWMgQ2xhdWRlIENvbnRlbnQgU2lnbmluZzBZMBMGByqGSM49AgEGCCqGSM49AwEHA0IABJh6CmvLUBgFFNU0vUKlOVtE6djd17L5SuwX0LemFisBM3dkd/3cyjxFA3Qo5S46fX0/ihY0VZ7mfb9KF703t5OjWDBWMA4GA1UdDwEB/wQEAwIHgDAVBgNVHSUEDjAMBgorBgEEAYPoXgIBMAwGA1UdEwEB/wQCMAAwHwYDVR0jBBgwFoAUzlHiBIFOZFsj+OPEz5o+nMHXXMIwCgYIKoZIzj0EAwMDZwAwZAIwMXMdFJ4BetLLVY7ORuE9noqbbAZOZn/aArXyTwFAZfKrPzxF2vPoJNf1+UCdg1XGAjBwX1zd9WGqYkqmL5SFqw1QySjr1zJfpJM9+1rdDwSPLMOPOjKuiXjoU/pUUeG9RwmhY3BhZFkNngAAAAAAAAAAAAAAAAAAAAAAAAAAAAAAAAAAAAAAAAAAAAAAAAAAAAAAAAAAAAAAAAAAAAAAAAAAAAAAAAAAAAAAAAAAAAAAAAAAAAAAAAAAAAAAAAAAAAAAAAAAAAAAAAAAAAAAAAAAAAAAAAAAAAAAAAAAAAAAAAAAAAAAAAAAAAAAAAAAAAAAAAAAAAAAAAAAAAAAAAAAAAAAAAAAAAAAAAAAAAAAAAAAAAAAAAAAAAAAAAAAAAAAAAAAAAAAAAAAAAAAAAAAAAAAAAAAAAAAAAAAAAAAAAAAAAAAAAAAAAAAAAAAAAAAAAAAAAAAAAAAAAAAAAAAAAAAAAAAAAAAAAAAAAAAAAAAAAAAAAAAAAAAAAAAAAAAAAAAAAAAAAAAAAAAAAAAAAAAAAAAAAAAAAAAAAAAAAAAAAAAAAAAAAAAAAAAAAAAAAAAAAAAAAAAAAAAAAAAAAAAAAAAAAAAAAAAAAAAAAAAAAAAAAAAAAAAAAAAAAAAAAAAAAAAAAAAAAAAAAAAAAAAAAAAAAAAAAAAAAAAAAAAAAAAAAAAAAAAAAAAAAAAAAAAAAAAAAAAAAAAAAAAAAAAAAAAAAAAAAAAAAAAAAAAAAAAAAAAAAAAAAAAAAAAAAAAAAAAAAAAAAAAAAAAAAAAAAAAAAAAAAAAAAAAAAAAAAAAAAAAAAAAAAAAAAAAAAAAAAAAAAAAAAAAAAAAAAAAAAAAAAAAAAAAAAAAAAAAAAAAAAAAAAAAAAAAAAAAAAAAAAAAAAAAAAAAAAAAAAAAAAAAAAAAAAAAAAAAAAAAAAAAAAAAAAAAAAAAAAAAAAAAAAAAAAAAAAAAAAAAAAAAAAAAAAAAAAAAAAAAAAAAAAAAAAAAAAAAAAAAAAAAAAAAAAAAAAAAAAAAAAAAAAAAAAAAAAAAAAAAAAAAAAAAAAAAAAAAAAAAAAAAAAAAAAAAAAAAAAAAAAAAAAAAAAAAAAAAAAAAAAAAAAAAAAAAAAAAAAAAAAAAAAAAAAAAAAAAAAAAAAAAAAAAAAAAAAAAAAAAAAAAAAAAAAAAAAAAAAAAAAAAAAAAAAAAAAAAAAAAAAAAAAAAAAAAAAAAAAAAAAAAAAAAAAAAAAAAAAAAAAAAAAAAAAAAAAAAAAAAAAAAAAAAAAAAAAAAAAAAAAAAAAAAAAAAAAAAAAAAAAAAAAAAAAAAAAAAAAAAAAAAAAAAAAAAAAAAAAAAAAAAAAAAAAAAAAAAAAAAAAAAAAAAAAAAAAAAAAAAAAAAAAAAAAAAAAAAAAAAAAAAAAAAAAAAAAAAAAAAAAAAAAAAAAAAAAAAAAAAAAAAAAAAAAAAAAAAAAAAAAAAAAAAAAAAAAAAAAAAAAAAAAAAAAAAAAAAAAAAAAAAAAAAAAAAAAAAAAAAAAAAAAAAAAAAAAAAAAAAAAAAAAAAAAAAAAAAAAAAAAAAAAAAAAAAAAAAAAAAAAAAAAAAAAAAAAAAAAAAAAAAAAAAAAAAAAAAAAAAAAAAAAAAAAAAAAAAAAAAAAAAAAAAAAAAAAAAAAAAAAAAAAAAAAAAAAAAAAAAAAAAAAAAAAAAAAAAAAAAAAAAAAAAAAAAAAAAAAAAAAAAAAAAAAAAAAAAAAAAAAAAAAAAAAAAAAAAAAAAAAAAAAAAAAAAAAAAAAAAAAAAAAAAAAAAAAAAAAAAAAAAAAAAAAAAAAAAAAAAAAAAAAAAAAAAAAAAAAAAAAAAAAAAAAAAAAAAAAAAAAAAAAAAAAAAAAAAAAAAAAAAAAAAAAAAAAAAAAAAAAAAAAAAAAAAAAAAAAAAAAAAAAAAAAAAAAAAAAAAAAAAAAAAAAAAAAAAAAAAAAAAAAAAAAAAAAAAAAAAAAAAAAAAAAAAAAAAAAAAAAAAAAAAAAAAAAAAAAAAAAAAAAAAAAAAAAAAAAAAAAAAAAAAAAAAAAAAAAAAAAAAAAAAAAAAAAAAAAAAAAAAAAAAAAAAAAAAAAAAAAAAAAAAAAAAAAAAAAAAAAAAAAAAAAAAAAAAAAAAAAAAAAAAAAAAAAAAAAAAAAAAAAAAAAAAAAAAAAAAAAAAAAAAAAAAAAAAAAAAAAAAAAAAAAAAAAAAAAAAAAAAAAAAAAAAAAAAAAAAAAAAAAAAAAAAAAAAAAAAAAAAAAAAAAAAAAAAAAAAAAAAAAAAAAAAAAAAAAAAAAAAAAAAAAAAAAAAAAAAAAAAAAAAAAAAAAAAAAAAAAAAAAAAAAAAAAAAAAAAAAAAAAAAAAAAAAAAAAAAAAAAAAAAAAAAAAAAAAAAAAAAAAAAAAAAAAAAAAAAAAAAAAAAAAAAAAAAAAAAAAAAAAAAAAAAAAAAAAAAAAAAAAAAAAAAAAAAAAAAAAAAAAAAAAAAAAAAAAAAAAAAAAAAAAAAAAAAAAAAAAAAAAAAAAAAAAAAAAAAAAAAAAAAAAAAAAAAAAAAAAAAAAAAAAAAAAAAAAAAAAAAAAAAAAAAAAAAAAAAAAAAAAAAAAAAAAAAAAAAAAAAAAAAAAAAAAAAAAAAAAAAAAAAAAAAAAAAAAAAAAAAAAAAAAAAAAAAAAAAAAAAAAAAAAAAAAAAAAAAAAAAAAAAAAAAAAAAAAAAAAAAAAAAAAAAAAAAAAAAAAAAAAAAAAAAAAAAAAAAAAAAAAAAAAAAAAAAAAAAAAAAAAAAAAAAAAAAAAAAAAAAAAAAAAAAAAAAAAAAAAAAAAAAAAAAAAAAAAAAAAAAAAAAAAAAAAAAAAAAAAAAAAAAAAAAAAAAAAAAAAAAAAAAAAAAAAAAAAAAAAAAAAAAAAAAAAAAAAAAAAAAAAAAAAAAAAAAAAAAAAAAAAAAAAAAAAAAAAAAAAAAAAAAAAAAAAAAAAAAAAAAAAAAAAAAAAAAAAAAAAAAAAAAAAAAAAAAAAAAAAAAAAAAAAAAAAAAAAAAAAAAAAAAAAAAAAAAAAAAAAAAAAAAAAAAAAAAAAAAAAAAAAAAAAAAAAAAAAAAAAAAAAAAAAAAAAAAAAAAAAAAAAAAAAAAAAAAAAAAAAAAAAAAAAAAAAAAAAAAAAAAAAAAAAAAAAAAAAAAAAAAAAAAAAAAAAAAAAAAAAAAAAAAAAAAAAAAAAAAAAAAAAAAAAAAAAAAAAAAAAAAAAAAAAAAAAAAAAAAAAAAAAAAAAAAAAAAAAAAAAAAAAAAAAAAAAAAAAAAAAAAAAAAAAAAAAAAAAAAAAAAAAAAAAAAAAAAAAAAAAAAAAAAAAAAAAAAAAAAAAAAAAAAAAAAAAAAAAAAAAAAAAAAAAAAAAAAAAAAAAAAAAAAAAAAAAAAAAAAAAAAAAAAAAAAAAAAAAAAAAAAAAAAAAAAAAAAAAAAAAAAAAAAAAAAAAAAAAAAAAAAAAAAAAAAAAAAAAAAAAAAAAAAAAAAAAAAAAAAAAAAAAAAAAAAAAAAAAAAAAAAAAAAAAAAAAAAAAAAAAAAAAAAAAAAAAAAAAAAAAAAAAAAAAAAAAAAAAAAAAAAAAAAAAAAAAAAAAAAAAAAAAAAAAAAAAAAAAAAAAAAAAAAAAAAAAAAAAAAAAAAAAAAAAAAAAAAAAAAAAAAAAAAAAAAAAAAAAAAAAAAAAAAAAAAAAAAAAAAAAAAAAAAAAAAAAAAAAAAAAAAAAAAAAAAAAAAAAAAAAAAAAAAAAAAAAAAAAAAAAAAAAAAAAAAAAAAAAAAAAAAAAAAAAAAAAAAAAAAAAAAAAAAAAAAAAAAAAAAAAAAAAAAAAAAAAAAAAAAAAAAAAAAAAAAAAAAAAAAAAAAAAAAAAAAAAAAAAAAAAAAAAAAAAAAAAAAAAAAAAAAAAAAAAAAAAAAAAAAAAAAAAAAAAAAAAAAAAAAAAAAAAAAAAAAAAAAAAAAAAAAAAAAAAAAAAAAAAAAAAAAAAAAAAAAAAAAAAAAAAAAAAAAAAAAAAAAAAAAAAAAAAAAAAAAAAAAAAAAAAAAAAAAAAAAAAAAAAAAAAAAAAAAAAAAAAAAAAAAAAAAAAAAAAAAAAAAAAAAAAAAAAAAAAAAAAAAAAAAAAAAAAAAAAAAAAAAAAAAAAAAAAAAAAAAAAAAAAAAAAAAAAAAAAAAAAAAAAAAAAAAAAAAAAAAAAAAAAAAAAAAAAAAAAAAAAAAAAAAAAAAAAAAAAAAAAAAAAAAAAAAAAAAAAAAAAAAAAAAAAAAAAAAAAAAAAAAAAAAAAAAAAAAAAAAAAAAAAAAAAAAAAAAAAAAAAAAAAAAAAAAAAAAAAAAAAAAAAAAAAAAAAAAAAAAAAAAAAAAAAAAAAAAAAAAAAAAAAAAAAAAAAAAAAAAAAAAAAAAAAAAAAAAAAAAAAAAAAAAAAAAAAAAAAAAAAAAAAAAAAAAAAAAAAAAAAAAAAAAAAAAAAAAAAAAAAAAAAAAAAAAAAAAAAAAAAAAAAAAAAAAAAAAAAAAAAAAAAAAAAAAAAAAAAAAAAAAAAAAAAAAAAAAAAAAAAAAAAAAAAAAAAAAAAAAAAAAAAAAAAAAAAAAAAAAAAAAAAAAAAAAAAAAAAAAAAAAAAAAAAAAAAAAAAAAAAAAAAAAAAAAAAAAAAAAAAAAAAAAAAAAAAAAAAAAAAAAAAAAAAAAAAAAAAAAAAAAAAAAAAAAAAAAAAAAAAAAAAAAAAAAAAAAAAAAAAAAAAAAAAAAAPZYQK9orjlJ4JkbwfoH7Z0nqV6wEnEScc5SQ1J+Cbxhk7jnuqziOS4f6uuDAO2i0ykmKg/N+viDU1+fvl9QyAL0yAI=</c2pa:manifest></metadata>
<path d="M452.376 171.438C415.944 114.966 440.932 48.6384 454.12 18.5464C454.599 17.4403 454.795 16.2324 454.69 15.0317C454.585 13.831 454.183 12.6752 453.521 11.6685C452.858 10.6618 451.955 9.83576 450.894 9.2649C449.832 8.69405 448.646 8.39628 447.44 8.39845H256.768C255.393 8.39851 254.045 8.78835 252.882 9.5228C251.719 10.2573 250.787 11.3063 250.196 12.5483C249.604 13.7903 249.377 15.1745 249.54 16.5405C249.703 17.9065 250.249 19.1984 251.116 20.2664C252.468 21.9365 253.439 23.8814 253.962 25.9655C254.485 28.0496 254.546 30.2226 254.143 32.333C253.739 34.4433 252.88 36.4402 251.625 38.1842C250.37 39.9282 248.749 41.3773 246.876 42.4305C136.16 105.054 79.1283 186.774 88.6323 282.934C98.2883 380.618 185.16 427.614 228.296 446.31C244.296 453.234 253.056 463.39 252.904 495.51C252.893 496.569 253.092 497.62 253.488 498.602C253.885 499.584 254.472 500.478 255.216 501.232C255.959 501.986 256.845 502.585 257.821 502.995C258.797 503.406 259.845 503.619 260.904 503.622H414.96C416.743 503.623 418.475 503.027 419.881 501.931C421.287 500.834 422.286 499.3 422.72 497.57C425.487 486.262 429.844 475.403 435.66 465.318C500.72 357.098 527.368 287.682 452.376 171.438ZM389.296 231.334C357.296 284.246 398.996 360.862 295.66 392.326C225.492 413.69 137.028 373.354 121.912 288.282C106.796 203.21 190.152 101.334 273.6 78.9305C383.836 49.3305 446.216 137.254 389.296 231.334Z" fill="#6C5CE7"></path>
<path d="M107.964 127.383C107.083 128.126 106.007 128.599 104.865 128.747C103.722 128.895 102.561 128.711 101.52 128.216C100.48 127.722 99.6033 126.938 98.9961 125.959C98.3888 124.98 98.0763 123.847 98.0959 122.695C98.0959 121.523 97.9358 110.959 89.8518 110.499C85.8556 110.352 81.9458 109.293 78.4207 107.405C74.8957 105.517 71.8486 102.848 69.5119 99.6029C67.8326 96.8076 66.882 93.6354 66.7471 90.3773C66.6123 87.1192 67.2974 83.8794 68.7398 80.9549C69.353 79.4861 70.5246 78.3211 71.9967 77.7161C73.4689 77.1111 75.1211 77.1157 76.5898 77.7289C78.0586 78.342 79.2236 79.5136 79.8286 80.9857C80.4336 82.4579 80.429 84.1101 79.8159 85.5789C77.8439 90.2989 79.2318 92.5109 79.6838 93.2389C81.0172 94.8357 82.6728 96.1329 84.5422 97.0456C86.4116 97.9582 88.4527 98.4657 90.5318 98.5349C106.316 99.4309 110.228 114.875 110.096 122.915C110.079 123.768 109.88 124.608 109.512 125.379C109.144 126.149 108.617 126.833 107.964 127.383Z" fill="#6C5CE7"></path>
<path d="M67.0859 199.79C66.946 200.931 66.4813 202.007 65.7473 202.892C65.0133 203.776 64.0407 204.431 62.9452 204.778C61.8497 205.126 60.6775 205.152 59.5679 204.852C58.4582 204.553 57.4579 203.941 56.6859 203.09C55.8859 202.226 48.5659 194.61 42.3379 199.786C39.31 202.405 35.7233 204.297 31.8521 205.318C27.9808 206.338 23.9275 206.46 20.0019 205.674C16.8681 204.775 14.0102 203.103 11.6906 200.812C9.37101 198.521 7.66388 195.684 6.72589 192.562C6.43 191.818 6.28588 191.023 6.302 190.223C6.31812 189.423 6.49417 188.634 6.81977 187.903C7.14538 187.172 7.61396 186.513 8.19794 185.966C8.78191 185.418 9.46948 184.994 10.2202 184.716C10.9708 184.439 11.7694 184.314 12.569 184.35C13.3685 184.386 14.1528 184.581 14.8757 184.924C15.5986 185.268 16.2455 185.752 16.7782 186.35C17.311 186.947 17.7189 187.645 17.9779 188.402C19.7539 193.202 22.2779 193.866 23.1059 194.094C25.1703 194.351 27.2658 194.17 29.2556 193.563C31.2454 192.956 33.0848 191.936 34.6539 190.57C46.8099 180.466 60.2019 189.094 65.5859 195.062C66.1585 195.698 66.5886 196.448 66.8473 197.264C67.1061 198.079 67.1874 198.941 67.0859 199.79Z" fill="#6C5CE7"></path>
<path d="M67.6577 295.503C67.8332 296.639 67.6786 297.802 67.2122 298.853C66.7457 299.904 65.9872 300.799 65.0267 301.431C64.0663 302.063 62.9445 302.406 61.7948 302.419C60.6451 302.432 59.516 302.114 58.5417 301.503C57.5417 300.887 48.4137 295.567 43.8377 302.247C41.6417 305.59 38.7109 308.388 35.269 310.426C31.8271 312.464 27.9651 313.689 23.9777 314.007C20.7189 314.002 17.5136 313.179 14.6558 311.612C11.7981 310.046 9.37938 307.787 7.62171 305.043C6.68231 303.758 6.29174 302.153 6.53591 300.58C6.78009 299.008 7.639 297.596 8.92371 296.657C10.2084 295.718 11.8137 295.327 13.3864 295.571C14.959 295.815 16.3703 296.674 17.3097 297.959C20.3257 302.087 22.9337 302.043 23.7937 302.031C25.8495 301.714 27.8154 300.968 29.5632 299.84C31.3111 298.713 32.8017 297.229 33.9377 295.487C42.8697 282.447 58.1097 287.087 64.9217 291.359C65.6483 291.813 66.2688 292.418 66.7408 293.133C67.2129 293.848 67.5256 294.657 67.6577 295.503Z" fill="#6C5CE7"></path>
<path d="M103.358 373.935C104.116 374.802 104.61 375.869 104.778 377.009C104.947 378.149 104.784 379.313 104.308 380.363C103.833 381.412 103.065 382.303 102.097 382.928C101.129 383.553 100.002 383.886 98.8496 383.887C97.6776 383.887 87.1136 384.263 86.8016 392.351C86.7258 396.35 85.7371 400.28 83.9111 403.839C82.0851 407.398 79.4701 410.493 76.2656 412.887C73.5024 414.618 70.3488 415.627 67.094 415.822C63.8392 416.017 60.5876 415.392 57.6376 414.003C56.1971 413.392 55.0523 412.242 54.4472 410.799C53.8422 409.356 53.8247 407.734 54.3986 406.278C54.9725 404.823 56.0924 403.649 57.5194 403.007C58.9464 402.365 60.5677 402.306 62.0376 402.843C66.7896 404.727 68.9776 403.303 69.6976 402.843C71.2708 401.479 72.5386 399.799 73.4181 397.911C74.2976 396.024 74.769 393.973 74.8016 391.891C75.4096 376.095 90.8016 371.891 98.8016 371.891C99.6632 371.884 100.516 372.064 101.302 372.416C102.088 372.769 102.789 373.287 103.358 373.935Z" fill="#6C5CE7"></path>
<path d="M228.399 198.344C231.462 199.88 234.389 201.674 237.147 203.708C249.451 213.472 273.015 224.06 280.839 224.268C281.734 224.432 282.659 224.302 283.474 223.898C284.29 223.494 284.952 222.836 285.363 222.024C286.491 219.2 284.743 216.756 280.795 216.024C278.884 215.679 277.009 215.156 275.195 214.464C259.715 208.98 257.875 198.208 259.075 189.372C256.097 185.792 253.395 181.992 250.991 178.004C246.339 170.768 236.431 165.736 229.979 170.62C223.843 175.264 222.439 184.804 226.811 194.868C227.247 195.88 227.779 197.052 228.399 198.344Z" fill="#6C5CE7"></path>
<path d="M184.158 262.003C189.758 260.663 194.958 259.151 198.654 258.083C202.026 257.103 204.114 256.483 205.69 256.195C210.331 255.344 215.075 255.201 219.758 255.771C219.916 255.792 220.077 255.762 220.217 255.686C220.357 255.61 220.469 255.491 220.538 255.348C220.606 255.204 220.628 255.042 220.599 254.886C220.571 254.729 220.493 254.585 220.378 254.475C213.204 247.308 206.831 239.379 201.374 230.831C200.922 230.055 200.574 229.299 200.202 228.539C193.613 227.182 187.187 225.125 181.034 222.403C169.834 215.779 160.322 217.635 156.414 223.139C151.674 229.823 153.178 238.247 162.354 246.423C169.342 251.998 176.62 257.199 184.158 262.003Z" fill="#6C5CE7"></path>
<path d="M345.437 104.94C301.661 93.0844 281.037 122.54 277.089 145.64C275.471 151.397 271.801 156.363 266.773 159.6C257.641 166.068 268.009 171.812 267.305 176.496C267.253 176.656 267.213 176.808 267.161 176.964C271.068 177.651 274.609 179.691 277.161 182.728C277.405 183.045 277.583 183.406 277.686 183.793C277.788 184.179 277.812 184.581 277.757 184.977C277.701 185.372 277.567 185.753 277.363 186.096C277.158 186.439 276.887 186.738 276.566 186.975C276.245 187.212 275.879 187.383 275.491 187.477C275.103 187.57 274.699 187.586 274.305 187.522C273.911 187.458 273.533 187.316 273.195 187.104C272.856 186.892 272.563 186.615 272.333 186.288C270.599 184.405 268.276 183.169 265.745 182.784C265.681 182.784 265.629 182.728 265.565 182.712C262.697 194.892 264.765 203.676 278.921 208.692C278.921 208.692 281.225 209.468 284.721 210.292C286.265 210.642 287.7 211.364 288.9 212.398C290.1 213.431 291.027 214.743 291.602 216.218C292.176 217.694 292.379 219.288 292.193 220.86C292.008 222.432 291.439 223.935 290.537 225.236C289.506 226.792 288.099 228.061 286.445 228.926C284.792 229.792 282.947 230.224 281.081 230.184C270.585 229.908 244.953 218.584 230.281 206.924C212.441 192.76 196.281 207.408 207.129 225.86C217.94 243.185 232.145 258.142 248.889 269.832C250.057 270.632 248.709 272.464 247.477 271.756C238.277 266.472 224.181 259.404 207.745 262.432C202.045 263.484 171.057 274.56 155.797 271.632C139.221 268.432 132.157 279.86 134.413 289.868C136.413 298.748 145.465 304.392 156.485 305.78C179.537 308.66 192.445 308.488 210.621 326.956C236.461 353.216 274.725 373.516 311.821 353.032C340.933 336.964 352.185 294.832 351.941 244.308C351.877 230.708 349.873 221.144 356.849 214.184C365.449 205.604 377.333 198.508 386.537 175.876C394.861 155.396 386.049 115.94 345.437 104.94ZM292.193 157.776L290.081 158.632L291.037 161.204C291.313 161.95 291.281 162.775 290.95 163.498C290.619 164.221 290.014 164.783 289.269 165.06C289.111 165.119 288.947 165.165 288.781 165.196C288.085 165.328 287.366 165.208 286.749 164.86C286.133 164.511 285.66 163.956 285.413 163.292L284.517 160.892L282.277 161.796C282.094 161.872 281.904 161.928 281.709 161.964C280.979 162.1 280.223 161.96 279.59 161.572C278.957 161.183 278.49 160.573 278.281 159.859C278.072 159.146 278.135 158.381 278.458 157.712C278.781 157.042 279.341 156.517 280.029 156.236L282.429 155.264L281.581 152.992C281.436 152.621 281.366 152.225 281.376 151.827C281.385 151.429 281.474 151.036 281.637 150.673C281.8 150.309 282.034 149.982 282.324 149.71C282.615 149.437 282.957 149.226 283.331 149.087C283.704 148.948 284.102 148.886 284.5 148.902C284.898 148.919 285.288 149.014 285.649 149.183C286.01 149.353 286.333 149.592 286.6 149.887C286.867 150.183 287.073 150.529 287.205 150.904L288.005 153.016L289.961 152.216C290.329 152.055 290.725 151.968 291.127 151.963C291.528 151.957 291.927 152.032 292.299 152.183C292.671 152.334 293.009 152.559 293.292 152.843C293.576 153.127 293.8 153.466 293.95 153.838C294.101 154.21 294.175 154.609 294.169 155.011C294.162 155.412 294.075 155.808 293.913 156.176C293.751 156.543 293.516 156.874 293.223 157.149C292.931 157.424 292.586 157.637 292.209 157.776H292.193Z" fill="#6C5CE7"></path>
</svg>