<svg fill="none" width="512" height="512" viewBox="0 0 512 512" xmlns="http://www.w3.org/2000/svg" xmlns:c2pa="http://c2pa.org/manifest"><metadata><c2pa:manifest>AAAWgmp1bWIAAAAeanVtZGMycGEAEQAQgAAAqgA4m3EDYzJwYQAAABZcanVtYgAAAEdqdW1kYzJtYQARABCAAACqADibcQN1cm46YzJwYTowY2RiMTQxOS02MDE5LTRmMWYtYWJiNy04YTZhYmExY2M4OWEAAAADl2p1bWIAAAApanVtZGMyYXMAEQAQgAAAqgA4m3EDYzJwYS5hc3NlcnRpb25zAAAAALxqdW1iAAAARGp1bWRjYm9yABEAEIAAAKoAOJtxE2MycGEuaW5ncmVkaWVudC52MwAAAAAYYzJzaJfbj5UGpXnlnVvTJdJWy34AAABwY2JvcqNpZGM6Zm9ybWF0bWltYWdlL3N2Zyt4bWxqaW5zdGFuY2VJRHgseG1wOmlpZDozYTY3NmMwNy05MTAwLTQ5YjQtYmYwYi1jNjJjYWUyMjUyMDdscmVsYXRpb25zaGlwaHBhcmVudE9mAAAB4mp1bWIAAABBanVtZGNib3IAEQAQgAAAqgA4m3ETYzJwYS5hY3Rpb25zLnYyAAAAABhjMnNo5hO+ChpOr39/B9AijeGBGwAAAZljYm9yomdhY3Rpb25zgqJmYWN0aW9ua2MycGEub3BlbmVkanBhcmFtZXRlcnOha2luZ3JlZGllbnRzgaJjdXJseC1zZWxmI2p1bWJmPWMycGEuYXNzZXJ0aW9ucy9jMnBhLmluZ3JlZGllbnQudjNkaGFzaFgg4a/iYIjAWOGw4tWeEZjoYvuVMPFBzIvdhisp/D6coGqkZmFjdGlvbngdY29tLmFudGhyb3BpYy5jbGF1ZGUucHJvdmlkZWRqcGFyYW1ldGVyc6F4H2NvbS5hbnRocm9waWMub3JpZ2luLWNvbmZpZGVuY2VndW5rbm93bmtkZXNjcmlwdGlvbnhmQ2xhdWRlIHByb3ZpZGVkIHRoaXMgZmlsZSBhdCB0aGUgcmVxdWVzdCBvZiBhIHVzZXIgYW5kIG1heSBoYXZlIGNyZWF0ZWQgb3IgbW9kaWZpZWQgdGhlIGZpbGUgY29udGVudHMubXNvZnR3YXJlQWdlbnShZG5hbWVmQ2xhdWRlcmFsbEFjdGlvbnNJbmNsdWRlZPUAAADIanVtYgAAAEBqdW1kY2JvcgARABCAAACqADibcRNjMnBhLmhhc2guZGF0YQAAAAAYYzJzaLwiI989QyABzb+BxmJGYZYAAACAY2JvcqVjYWxnZnNoYTI1NmNwYWRNAAAAAAAAAAAAAAAAAGRoYXNoWCBWWR4sot4S7UtASjy2XQGEuy3AIL/IW5kId8yXEKKXCmRuYW1lbmp1bWJmIG1hbmlmZXN0amV4Y2x1c2lvbnOBomVzdGFydBiiZmxlbmd0aBkeBAAAAj5qdW1iAAAAJ2p1bWRjMmNsABEAEIAAAKoAOJtxA2MycGEuY2xhaW0udjIAAAACD2Nib3KlY2FsZ2ZzaGEyNTZpc2lnbmF0dXJleE1zZWxmI2p1bWJmPS9jMnBhL3VybjpjMnBhOjBjZGIxNDE5LTYwMTktNGYxZi1hYmI3LThhNmFiYTFjYzg5YS9jMnBhLnNpZ25hdHVyZWppbnN0YW5jZUlEeCx4bXA6aWlkOmEzMmE0NTdiLTM5MTItNDc5Yy05M2ZjLTUxYjcwMWMyMDNmN3JjcmVhdGVkX2Fzc2VydGlvbnODomN1cmx4LXNlbGYjanVtYmY9YzJwYS5hc3NlcnRpb25zL2MycGEuaW5ncmVkaWVudC52M2RoYXNoWCDhr+JgiMBY4bDi1Z4RmOhi+5Uw8UHMi92GKyn8PpygaqJjdXJseCpzZWxmI2p1bWJmPWMycGEuYXNzZXJ0aW9ucy9jMnBhLmFjdGlvbnMudjJkaGFzaFggwMGm4Fv+CeWDFbjM1LFugLyypTBD1VM1bxZrbNkugkeiY3VybHgpc2VsZiNqdW1iZj1jMnBhLmFzc2VydGlvbnMvYzJwYS5oYXNoLmRhdGFkaGFzaFggjqVD7o+pYOOithiamWpXdmNEv5J7uIuKd3MEEGYhQbx0Y2xhaW1fZ2VuZXJhdG9yX2luZm+jZG5hbWVvQW50aHJvcGljIEZpbGVzZ3ZlcnNpb25lMS4wLjBrc3BlY1ZlcnNpb25lMi40LjAAABA4anVtYgAAAChqdW1kYzJjcwARABCAAACqADibcQNjMnBhLnNpZ25hdHVyZQAAABAIY2JvctKEWQISogEmGCFZAgowggIGMIIBjaADAgECAhRA5aAK7sI50L64g/oGQgU9Z1UTADAKBggqhkjOPQQDAzBJMRcwFQYDVQQKEw5BbnRocm9waWMsIFBCQzEuMCwGA1UEAxMlQW50aHJvcGljIENvbnRlbnQgQ3JlZGVudGlhbHMgUm9vdCBDQTAeFw0yNjA4MDcxODQzNTZaFw0yODA4MDYxOTQzNTZaMEQxFzAVBgNVBAoTDkFudGhyb3BpYywgUEJDMSkwJwYDVQQDEyBBbnRocm9waWMgQ2xhdWRlIENvbnRlbnQgU2lnbmluZzBZMBMGByqGSM49AgEGCCqGSM49AwEHA0IABJh6CmvLUBgFFNU0vUKlOVtE6djd17L5SuwX0LemFisBM3dkd/3cyjxFA3Qo5S46fX0/ihY0VZ7mfb9KF703t5OjWDBWMA4GA1UdDwEB/wQEAwIHgDAVBgNVHSUEDjAMBgorBgEEAYPoXgIBMAwGA1UdEwEB/wQCMAAwHwYDVR0jBBgwFoAUzlHiBIFOZFsj+OPEz5o+nMHXXMIwCgYIKoZIzj0EAwMDZwAwZAIwMXMdFJ4BetLLVY7ORuE9noqbbAZOZn/aArXyTwFAZfKrPzxF2vPoJNf1+UCdg1XGAjBwX1zd9WGqYkqmL5SFqw1QySjr1zJfpJM9+1rdDwSPLMOPOjKuiXjoU/pUUeG9RwmhY3BhZFkNngAAAAAAAAAAAAAAAAAAAAAAAAAAAAAAAAAAAAAAAAAAAAAAAAAAAAAAAAAAAAAAAAAAAAAAAAAAAAAAAAAAAAAAAAAAAAAAAAAAAAAAAAAAAAAAAAAAAAAAAAAAAAAAAAAAAAAAAAAAAAAAAAAAAAAAAAAAAAAAAAAAAAAAAAAAAAAAAAAAAAAAAAAAAAAAAAAAAAAAAAAAAAAAAAAAAAAAAAAAAAAAAAAAAAAAAAAAAAAAAAAAAAAAAAAAAAAAAAAAAAAAAAAAAAAAAAAAAAAAAAAAAAAAAAAAAAAAAAAAAAAAAAAAAAAAAAAAAAAAAAAAAAAAAAAAAAAAAAAAAAAAAAAAAAAAAAAAAAAAAAAAAAAAAAAAAAAAAAAAAAAAAAAAAAAAAAAAAAAAAAAAAAAAAAAAAAAAAAAAAAAAAAAAAAAAAAAAAAAAAAAAAAAAAAAAAAAAAAAAAAAAAAAAAAAAAAAAAAAAAAAAAAAAAAAAAAAAAAAAAAAAAAAAAAAAAAAAAAAAAAAAAAAAAAAAAAAAAAAAAAAAAAAAAAAAAAAAAAAAAAAAAAAAAAAAAAAAAAAAAAAAAAAAAAAAAAAAAAAAAAAAAAAAAAAAAAAAAAAAAAAAAAAAAAAAAAAAAAAAAAAAAAAAAAAAAAAAAAAAAAAAAAAAAAAAAAAAAAAAAAAAAAAAAAAAAAAAAAAAAAAAAAAAAAAAAAAAAAAAAAAAAAAAAAAAAAAAAAAAAAAAAAAAAAAAAAAAAAAAAAAAAAAAAAAAAAAAAAAAAAAAAAAAAAAAAAAAAAAAAAAAAAAAAAAAAAAAAAAAAAAAAAAAAAAAAAAAAAAAAAAAAAAAAAAAAAAAAAAAAAAAAAAAAAAAAAAAAAAAAAAAAAAAAAAAAAAAAAAAAAAAAAAAAAAAAAAAAAAAAAAAAAAAAAAAAAAAAAAAAAAAAAAAAAAAAAAAAAAAAAAAAAAAAAAAAAAAAAAAAAAAAAAAAAAAAAAAAAAAAAAAAAAAAAAAAAAAAAAAAAAAAAAAAAAAAAAAAAAAAAAAAAAAAAAAAAAAAAAAAAAAAAAAAAAAAAAAAAAAAAAAAAAAAAAAAAAAAAAAAAAAAAAAAAAAAAAAAAAAAAAAAAAAAAAAAAAAAAAAAAAAAAAAAAAAAAAAAAAAAAAAAAAAAAAAAAAAAAAAAAAAAAAAAAAAAAAAAAAAAAAAAAAAAAAAAAAAAAAAAAAAAAAAAAAAAAAAAAAAAAAAAAAAAAAAAAAAAAAAAAAAAAAAAAAAAAAAAAAAAAAAAAAAAAAAAAAAAAAAAAAAAAAAAAAAAAAAAAAAAAAAAAAAAAAAAAAAAAAAAAAAAAAAAAAAAAAAAAAAAAAAAAAAAAAAAAAAAAAAAAAAAAAAAAAAAAAAAAAAAAAAAAAAAAAAAAAAAAAAAAAAAAAAAAAAAAAAAAAAAAAAAAAAAAAAAAAAAAAAAAAAAAAAAAAAAAAAAAAAAAAAAAAAAAAAAAAAAAAAAAAAAAAAAAAAAAAAAAAAAAAAAAAAAAAAAAAAAAAAAAAAAAAAAAAAAAAAAAAAAAAAAAAAAAAAAAAAAAAAAAAAAAAAAAAAAAAAAAAAAAAAAAAAAAAAAAAAAAAAAAAAAAAAAAAAAAAAAAAAAAAAAAAAAAAAAAAAAAAAAAAAAAAAAAAAAAAAAAAAAAAAAAAAAAAAAAAAAAAAAAAAAAAAAAAAAAAAAAAAAAAAAAAAAAAAAAAAAAAAAAAAAAAAAAAAAAAAAAAAAAAAAAAAAAAAAAAAAAAAAAAAAAAAAAAAAAAAAAAAAAAAAAAAAAAAAAAAAAAAAAAAAAAAAAAAAAAAAAAAAAAAAAAAAAAAAAAAAAAAAAAAAAAAAAAAAAAAAAAAAAAAAAAAAAAAAAAAAAAAAAAAAAAAAAAAAAAAAAAAAAAAAAAAAAAAAAAAAAAAAAAAAAAAAAAAAAAAAAAAAAAAAAAAAAAAAAAAAAAAAAAAAAAAAAAAAAAAAAAAAAAAAAAAAAAAAAAAAAAAAAAAAAAAAAAAAAAAAAAAAAAAAAAAAAAAAAAAAAAAAAAAAAAAAAAAAAAAAAAAAAAAAAAAAAAAAAAAAAAAAAAAAAAAAAAAAAAAAAAAAAAAAAAAAAAAAAAAAAAAAAAAAAAAAAAAAAAAAAAAAAAAAAAAAAAAAAAAAAAAAAAAAAAAAAAAAAAAAAAAAAAAAAAAAAAAAAAAAAAAAAAAAAAAAAAAAAAAAAAAAAAAAAAAAAAAAAAAAAAAAAAAAAAAAAAAAAAAAAAAAAAAAAAAAAAAAAAAAAAAAAAAAAAAAAAAAAAAAAAAAAAAAAAAAAAAAAAAAAAAAAAAAAAAAAAAAAAAAAAAAAAAAAAAAAAAAAAAAAAAAAAAAAAAAAAAAAAAAAAAAAAAAAAAAAAAAAAAAAAAAAAAAAAAAAAAAAAAAAAAAAAAAAAAAAAAAAAAAAAAAAAAAAAAAAAAAAAAAAAAAAAAAAAAAAAAAAAAAAAAAAAAAAAAAAAAAAAAAAAAAAAAAAAAAAAAAAAAAAAAAAAAAAAAAAAAAAAAAAAAAAAAAAAAAAAAAAAAAAAAAAAAAAAAAAAAAAAAAAAAAAAAAAAAAAAAAAAAAAAAAAAAAAAAAAAAAAAAAAAAAAAAAAAAAAAAAAAAAAAAAAAAAAAAAAAAAAAAAAAAAAAAAAAAAAAAAAAAAAAAAAAAAAAAAAAAAAAAAAAAAAAAAAAAAAAAAAAAAAAAAAAAAAAAAAAAAAAAAAAAAAAAAAAAAAAAAAAAAAAAAAAAAAAAAAAAAAAAAAAAAAAAAAAAAAAAAAAAAAAAAAAAAAAAAAAAAAAAAAAAAAAAAAAAAAAAAAAAAAAAAAAAAAAAAAAAAAAAAAAAAAAAAAAAAAAAAAAAAAAAAAAAAAAAAAAAAAAAAAAAAAAAAAAAAAAAAAAAAAAAAAAAAAAAAAAAAAAAAAAAAAAAAAAAAAAAAAAAAAAAAAAAAAAAAAAAAAAAAAAAAAAAAAAAAAAAAAAAAAAAAAAAAAAAAAAAAAAAAAAAAAAAAAAAAAAAAAAAAAAAAAAAAAAAAAAAAAAAAAAAAAAAAAAAAAAAAAAAAAAAAAAAAAAAAAAAAAAAAAAAAAAAAAAAAAAAAAAAAAAAAAAAAAAAAAAAAAAAAAAAAAAAAAAAAAAAAAAAAAAAAAAAAAAAAAAAAAAAAAAAAAAAAAAAAAAAAAAAAAAAAAAAAAAAAAAAAAAAAAAAAAAAAAAAAAAAAAAAAAAAAAAAAAAAAAAAAAAAAAAAAAAAAAAAAAAAAAAAAAAAAAAAAAAAAAAAAAAAAAAAAAAAAAAAAAAAAAAAAAAAAAAAAAAAAAAAAAAAAAAAAAAAAAAAAAAAAAAAAAAAAAAAAAAAAAAAAAAAAAAAAAAAAAAAAAAAAAAAAAAAAAAAAAAAAAAAAAAAAAAAAAAAAAAAAAAAAAAAAAAAAAAAAAAAAAAAAAAAAAAAAAAAAAAAAAAAAAAAAAAAAAAAAAAAAAAAAAAAAAAAAAAAAAAAAAAAAAAAAAAAAAAAAAAAAAAAAAAAAAAAAAAAAAAAAAAAAAAAAAAAAAAAAAAAAAAAAAAAAAAAAAAAAAAAAAAAAAAAAAAAAAAAAAAAAAAAAAAAAAAAAAAAAAAAAAAAAAAAAAAAAAAAAAAAAAAAAAAAAAAAAAAAAAAAAAAAAAAAAAAAAAAAAAAAAAAAAAAAAAAAAAAAAAAAAAAAAAAAAAAAAAAAAAAAAAAAAAAAAAAAAAAAAAAAAAAAAAAAAAAAAAAAAAAAAAAAAAAAAAAAAAAAAAAAAAAAAAAAAAAAAAAAAAAAAAAAAAAAAAAAAAAAAAAAAAAAAAAAAAAAAAAAAAAAAAAAAAAAAAAAAAAAAAAAAAAAAAAAAAAAAAAAAAAAAAAAAAAAAAAAAAAAAAAAAAAAAAAAAAAAAAAAAAAAAAAAAAAAAAAAAAAAAAAAAAAAAAAAAAAAAAAAAAAAAAAAAAAAAAAAAAAAAAAAAAAAAAAAAAAAAAAAAAAAAAAAAAAAAAAAAAAAAAAAAAAAAAAAAAAAAAAAAAAAAAAAAAAAAAAAAAAAAAAAAAAAAAAAAAAAAAAAAAAAAAAAAAAAAAAAAAAAAAAAAAAAAAAAAAAAAAAAAAAAAAAAAAAAAAAAAAAAAAAAAAAAAAAAAAAAAAAAAAAAAAAAAAAAAAAAAAAAAAAAAAAAAAAAAAAAAAAAAAAAAAAAAAAAAAAAAAAAAAAAAAAAAAAAAAAAAAAAAAAAAAAAAAAAAAAAAAAAAAAAAAAAAAAAAAAAAAAAAAAAAAAAAAAAAAAAAAAAAAAAAAAAAAAAAAAAAAAAAAAAAAAAAAAAAAAAAAAAAAAAAAAAAAAAAAAAAAAAAAAAAAAAAAAAAAAAAAAAAAAAAAAAAAAAAAAAAAAAAAAAAAAAAAAAAAAAAAAAAAAAAAAAAAAAAAAAAAAAAAAAAAAAAAAAAAAAAAAAAAAAAAAAAAAAAAAAAAAAAAAAAAAAAAAAAAAAAAAAAAAAAAAAAAAAAAAAAAAAAAAAAAAAAAAAAAAAAAAAAAAAAAAAAAAAAAAAAAAAAAAAAAAAAAAAAAAAAAAAAAAAAAAAAAAAAAAAAAAAAAAAAAAAAAAAAAAAAAAAAAAAAPZYQHeWjfmKpOgfeESgXF2Afb0kXqNnAFHRCJscHS0FjojMrXg6g/4K945W57EciM8SbsNk83xIQIOThHfXbBVi7AM=</c2pa:manifest></metadata>
<path d="M24.387 238.403L56.617 241.093C56.829 241.112 57.04 241.119 57.249 241.119C61.029 241.119 64.267 238.276 64.694 234.453C69.921 187.766 92.157 144.617 127.309 112.956C160.859 82.737 203.642 65.38 248.5 63.635V67.2C248.5 74.065 254.085 79.65 260.95 79.65C264.175 79.65 267.239 78.416 269.601 76.152L297.092 49.581C299.73 47.041 301.241 43.484 301.241 39.824C301.241 36.165 299.729 32.608 297.1 30.077L269.576 3.471C267.237 1.232 264.174 0 260.951 0C254.086 0 248.501 5.585 248.501 12.45V16.276C192.769 18.008 139.466 39.005 97.672 75.843C94.565 78.581 94.266 83.321 97.005 86.428C99.744 89.535 104.484 89.835 107.59 87.095C148.514 51.025 201.221 31.16 256.001 31.16C260.144 31.16 263.501 27.803 263.501 23.66V18.461L285.605 39.825L263.501 61.189V55.99C263.501 51.847 260.144 48.49 256.001 48.49C204.714 48.49 155.445 67.427 117.271 101.811C81.21 134.29 57.76 178 50.728 225.55L33.412 224.104C39.287 182.447 56.651 143.586 83.894 111.295C86.565 108.129 86.164 103.398 82.998 100.727C79.834 98.056 75.102 98.457 72.43 101.623C41.594 138.172 22.618 182.61 17.554 230.134C17.34 232.142 17.945 234.151 19.231 235.707C20.516 237.264 22.375 238.235 24.387 238.403Z" fill="#6C5CE7"></path>
<path d="M487.616 273.594L455.386 270.904C451.344 270.547 447.759 273.51 447.308 277.545C444.609 301.718 437.418 324.872 425.937 346.364C423.985 350.017 425.365 354.561 429.018 356.513C432.674 358.467 437.215 357.084 439.167 353.432C450.398 332.407 457.822 309.907 461.278 286.448L478.594 287.893C471.808 336.25 449.916 380.056 414.989 414.984C372.514 457.449 316.051 480.837 256.002 480.837C251.859 480.837 248.502 484.194 248.502 488.337V493.536L226.398 472.172L248.502 450.808V456.007C248.502 460.15 251.859 463.507 256.002 463.507C320.113 463.507 379.649 434.464 419.345 383.824C421.901 380.564 421.329 375.85 418.07 373.295C414.81 370.741 410.097 371.31 407.541 374.57C372.261 419.576 320.1 446.198 263.503 448.363V444.797C263.503 437.932 257.918 432.347 251.053 432.347C247.828 432.347 244.764 433.581 242.402 435.845L214.911 462.416C212.273 464.956 210.762 468.513 210.762 472.173C210.762 475.832 212.274 479.389 214.903 481.92L242.429 508.526C244.768 510.764 247.831 511.997 251.054 511.997C257.919 511.997 263.504 506.412 263.504 499.547V495.723C324.749 493.854 382.061 469.118 425.598 425.591C464.803 386.385 488.613 336.685 494.452 281.862C494.666 279.855 494.061 277.846 492.775 276.29C491.487 274.733 489.628 273.762 487.616 273.594Z" fill="#6C5CE7"></path>
<path d="M216.27 415.017H295.731C299.874 415.017 303.231 411.66 303.231 407.517V303.227H407.52C411.663 303.227 415.02 299.87 415.02 295.727V216.267C415.02 212.124 411.663 208.767 407.52 208.767H380.16C376.017 208.767 372.66 212.124 372.66 216.267C372.66 220.41 376.017 223.767 380.16 223.767H400.019V288.228H295.73C291.587 288.228 288.23 291.585 288.23 295.728V400.017H223.77V295.727C223.77 291.584 220.413 288.227 216.27 288.227H111.98V223.767H216.27C220.413 223.767 223.77 220.41 223.77 216.267V111.977H288.231V216.267C288.231 220.41 291.588 223.767 295.731 223.767H345.161C349.304 223.767 352.661 220.41 352.661 216.267C352.661 212.124 349.304 208.767 345.161 208.767H303.231V104.477C303.231 100.334 299.874 96.9766 295.731 96.9766H216.27C212.127 96.9766 208.77 100.334 208.77 104.477V208.767H104.48C100.337 208.767 96.9805 212.124 96.9805 216.267V295.728C96.9805 299.871 100.337 303.228 104.48 303.228H208.77V407.517C208.77 411.659 212.127 415.017 216.27 415.017Z" fill="#6C5CE7"></path>
<path d="M490.358 94.9578H465.533V70.1328C465.533 65.9898 462.176 62.6328 458.033 62.6328H425.708C421.565 62.6328 418.208 65.9898 418.208 70.1328V94.9578H393.383C389.24 94.9578 385.883 98.3148 385.883 102.458V134.783C385.883 138.926 389.24 142.283 393.383 142.283H418.208V167.108C418.208 171.251 421.565 174.608 425.708 174.608H458.033C462.176 174.608 465.533 171.251 465.533 167.108V142.283H490.358C494.501 142.283 497.858 138.926 497.858 134.783V102.458C497.858 98.3148 494.501 94.9578 490.358 94.9578ZM482.858 127.283H458.033C453.89 127.283 450.533 130.64 450.533 134.783V159.608H433.208V134.783C433.208 130.64 429.851 127.283 425.708 127.283H400.883V109.958H425.708C429.851 109.958 433.208 106.601 433.208 102.458V77.6328H450.533V102.458C450.533 106.601 453.89 109.958 458.033 109.958H482.858V127.283Z" fill="#6C5CE7"></path>
<path d="M126.12 409.548V377.223C126.12 373.08 122.763 369.723 118.62 369.723H93.7945V344.898C93.7945 340.755 90.4375 337.398 86.2945 337.398H53.9695C49.8265 337.398 46.4695 340.755 46.4695 344.898V369.723H21.6445C17.5015 369.723 14.1445 373.08 14.1445 377.223V409.548C14.1445 413.691 17.5015 417.048 21.6445 417.048H46.4695V441.873C46.4695 446.016 49.8265 449.373 53.9695 449.373H86.2945C90.4375 449.373 93.7945 446.016 93.7945 441.873V417.048H118.62C122.763 417.048 126.12 413.691 126.12 409.548ZM111.12 402.048H86.2945C82.1515 402.048 78.7945 405.405 78.7945 409.548V434.373H61.4695V409.548C61.4695 405.405 58.1125 402.048 53.9695 402.048H29.1445V384.723H53.9695C58.1125 384.723 61.4695 381.366 61.4695 377.223V352.398H78.7945V377.223C78.7945 381.366 82.1515 384.723 86.2945 384.723H111.12V402.048Z" fill="#6C5CE7"></path>
<path d="M169.547 466.695H156.844V453.992C156.844 449.849 153.487 446.492 149.344 446.492C145.201 446.492 141.844 449.849 141.844 453.992V466.695H129.141C124.998 466.695 121.641 470.052 121.641 474.195C121.641 478.338 124.998 481.695 129.141 481.695H141.844V494.398C141.844 498.541 145.201 501.898 149.344 501.898C153.487 501.898 156.844 498.541 156.844 494.398V481.695H169.547C173.69 481.695 177.047 478.338 177.047 474.195C177.047 470.052 173.689 466.695 169.547 466.695Z" fill="#6C5CE7"></path>
<path d="M342.457 45.3046H355.16V58.0076C355.16 62.1506 358.517 65.5076 362.66 65.5076C366.803 65.5076 370.16 62.1506 370.16 58.0076V45.3046H382.863C387.006 45.3046 390.363 41.9476 390.363 37.8046C390.363 33.6616 387.006 30.3046 382.863 30.3046H370.16V17.6016C370.16 13.4586 366.803 10.1016 362.66 10.1016C358.517 10.1016 355.16 13.4586 355.16 17.6016V30.3046H342.457C338.314 30.3046 334.957 33.6616 334.957 37.8046C334.957 41.9476 338.315 45.3046 342.457 45.3046Z" fill="#6C5CE7"></path>
</svg>